<svg width="186" height="27" viewBox="0 0 186 27" fill="none" xmlns="http://www.w3.org/2000/svg">
<path d="M9.29477 2.33998V26H10.8348V2.33998H19.6548V1.00998H0.509766V2.33998H9.29477Z" fill="black"/>
<path d="M35.3948 17.18C35.4648 15.8966 35.3482 14.6716 35.0448 13.505C34.7648 12.3383 34.2982 11.3233 33.6448 10.46C32.9915 9.57331 32.1515 8.87332 31.1248 8.35998C30.0982 7.84665 28.8848 7.58998 27.4848 7.58998C26.1315 7.58998 24.9532 7.86998 23.9498 8.42998C22.9465 8.96665 22.1065 9.68998 21.4298 10.6C20.7765 11.51 20.2865 12.5483 19.9598 13.715C19.6565 14.8816 19.5165 16.0833 19.5398 17.32C19.5165 18.5566 19.6682 19.735 19.9948 20.855C20.3448 21.9516 20.8465 22.92 21.4998 23.76C22.1765 24.5767 23.0165 25.23 24.0198 25.72C25.0232 26.1866 26.1782 26.42 27.4848 26.42C29.6315 26.42 31.3698 25.8716 32.6998 24.775C34.0532 23.655 34.9048 22.0333 35.2548 19.91H33.9248C33.5982 21.59 32.8632 22.9083 31.7198 23.865C30.5998 24.7983 29.1882 25.265 27.4848 25.265C26.3648 25.265 25.3848 25.0433 24.5448 24.6C23.7282 24.1567 23.0398 23.5616 22.4798 22.815C21.9198 22.0683 21.4998 21.205 21.2198 20.225C20.9632 19.245 20.8465 18.23 20.8698 17.18H35.3948ZM20.8698 16.025C20.9398 15.1383 21.1382 14.2633 21.4648 13.4C21.7915 12.5133 22.2348 11.7316 22.7948 11.055C23.3548 10.355 24.0198 9.79498 24.7898 9.37498C25.5832 8.95498 26.4815 8.74498 27.4848 8.74498C28.5115 8.74498 29.4215 8.95498 30.2148 9.37498C31.0315 9.77165 31.7198 10.3083 32.2798 10.985C32.8398 11.6383 33.2715 12.4083 33.5748 13.295C33.8782 14.1816 34.0415 15.0916 34.0648 16.025H20.8698Z" fill="black"/>
<path d="M52.6049 13.575C52.5116 12.5483 52.2549 11.6616 51.8349 10.915C51.4149 10.1683 50.8666 9.54998 50.1899 9.05998C49.5366 8.56998 48.7782 8.20832 47.9149 7.97498C47.0749 7.71832 46.1649 7.58998 45.1849 7.58998C43.8549 7.58998 42.6766 7.83498 41.6499 8.32498C40.6232 8.81498 39.7599 9.47998 39.0599 10.32C38.3599 11.16 37.8232 12.14 37.4499 13.26C37.0999 14.38 36.9249 15.57 36.9249 16.83C36.9249 18.09 37.0766 19.3033 37.3799 20.47C37.7066 21.6133 38.1966 22.6283 38.8499 23.515C39.5266 24.4016 40.3782 25.1133 41.4049 25.65C42.4549 26.1633 43.7149 26.42 45.1849 26.42C46.1649 26.42 47.0749 26.2683 47.9149 25.965C48.7782 25.6616 49.5366 25.23 50.1899 24.67C50.8666 24.0866 51.4266 23.375 51.8699 22.535C52.3366 21.695 52.6399 20.7383 52.7799 19.665H51.4499C51.3333 20.4816 51.0999 21.24 50.7499 21.94C50.3999 22.6166 49.9449 23.2 49.3849 23.69C48.8482 24.18 48.2183 24.565 47.4949 24.845C46.7949 25.125 46.0249 25.265 45.1849 25.265C44.0182 25.265 43.0033 25.055 42.1399 24.635C41.2766 24.215 40.5532 23.6316 39.9699 22.885C39.3866 22.115 38.9549 21.2166 38.6749 20.19C38.3949 19.1633 38.2549 18.0433 38.2549 16.83C38.2549 15.8033 38.4066 14.8116 38.7099 13.855C39.0132 12.875 39.4566 12.0116 40.0399 11.265C40.6232 10.495 41.3466 9.88832 42.2099 9.44498C43.0732 8.97831 44.0649 8.74498 45.1849 8.74498C46.0016 8.74498 46.7599 8.84998 47.4599 9.05998C48.1832 9.26998 48.8132 9.57331 49.3499 9.96998C49.8866 10.3666 50.3182 10.8683 50.6449 11.475C50.9949 12.0816 51.2049 12.7816 51.2749 13.575H52.6049Z" fill="black"/>
<path d="M56.7214 1.00998V26H58.0514V16.27C58.0514 15.1733 58.1914 14.17 58.4714 13.26C58.7748 12.3266 59.2064 11.5333 59.7664 10.88C60.3264 10.2033 61.0031 9.67831 61.7964 9.30498C62.6131 8.93165 63.5231 8.74498 64.5264 8.74498C65.7398 8.74498 66.6848 8.96665 67.3614 9.40998C68.0614 9.85332 68.5748 10.39 68.9014 11.02C69.2514 11.6266 69.4614 12.2683 69.5314 12.945C69.6014 13.5983 69.6364 14.1583 69.6364 14.625V26H70.9664V14.87C70.9664 14.4966 70.9548 14.065 70.9314 13.575C70.9081 13.0616 70.8381 12.5366 70.7214 12C70.6048 11.4633 70.4064 10.9383 70.1264 10.425C69.8698 9.88832 69.5081 9.40998 69.0414 8.98998C68.5748 8.56998 67.9681 8.23165 67.2214 7.97498C66.4981 7.71832 65.6114 7.58998 64.5614 7.58998C63.8614 7.58998 63.1731 7.68332 62.4964 7.86998C61.8198 8.05665 61.1898 8.33665 60.6064 8.70998C60.0464 9.08331 59.5448 9.53832 59.1014 10.075C58.6814 10.5883 58.3548 11.1833 58.1214 11.86H58.0514V1.00998H56.7214Z" fill="black"/>
<path d="M87.5563 9.16498V26H88.8863V9.16498H92.6313V8.00998H88.8863V4.40498C88.8863 3.40165 89.1313 2.73665 89.6213 2.40998C90.1346 2.05998 90.7646 1.88498 91.5113 1.88498C91.9779 1.88498 92.5029 1.94332 93.0863 2.05998V0.904982C92.5029 0.788314 91.9779 0.72998 91.5113 0.72998C90.9746 0.72998 90.4613 0.799981 89.9713 0.939982C89.5046 1.07998 89.0846 1.28998 88.7113 1.56998C88.3613 1.84998 88.0813 2.22331 87.8713 2.68998C87.6613 3.13332 87.5563 3.66998 87.5563 4.29998V8.00998H84.3363V9.16498H87.5563Z" fill="black"/>
<path d="M94.7408 17.005C94.7408 18.2883 94.9158 19.5016 95.2658 20.645C95.6391 21.7883 96.1758 22.7917 96.8758 23.655C97.5758 24.495 98.4391 25.1716 99.4658 25.685C100.492 26.175 101.671 26.42 103.001 26.42C104.331 26.42 105.509 26.175 106.536 25.685C107.562 25.1716 108.426 24.495 109.126 23.655C109.826 22.7917 110.351 21.7883 110.701 20.645C111.074 19.5016 111.261 18.2883 111.261 17.005C111.261 15.7216 111.074 14.52 110.701 13.4C110.351 12.2566 109.826 11.2533 109.126 10.39C108.426 9.52665 107.562 8.84998 106.536 8.35998C105.509 7.84665 104.331 7.58998 103.001 7.58998C101.671 7.58998 100.492 7.84665 99.4658 8.35998C98.4391 8.84998 97.5758 9.52665 96.8758 10.39C96.1758 11.2533 95.6391 12.2566 95.2658 13.4C94.9158 14.52 94.7408 15.7216 94.7408 17.005ZM96.0708 17.005C96.0708 15.9316 96.2224 14.905 96.5258 13.925C96.8291 12.9216 97.2724 12.035 97.8558 11.265C98.4391 10.495 99.1624 9.88832 100.026 9.44498C100.889 8.97831 101.881 8.74498 103.001 8.74498C104.121 8.74498 105.112 8.97831 105.976 9.44498C106.839 9.88832 107.562 10.495 108.146 11.265C108.729 12.035 109.172 12.9216 109.476 13.925C109.779 14.905 109.931 15.9316 109.931 17.005C109.931 18.0783 109.779 19.1166 109.476 20.12C109.172 21.1 108.729 21.975 108.146 22.745C107.562 23.515 106.839 24.1333 105.976 24.6C105.112 25.0433 104.121 25.265 103.001 25.265C101.881 25.265 100.889 25.0433 100.026 24.6C99.1624 24.1333 98.4391 23.515 97.8558 22.745C97.2724 21.975 96.8291 21.1 96.5258 20.12C96.2224 19.1166 96.0708 18.0783 96.0708 17.005Z" fill="black"/>
<path d="M116.552 8.00998H115.222V26H116.552V16.165C116.575 15.4883 116.633 14.905 116.727 14.415C116.82 13.925 116.948 13.4816 117.112 13.085C117.275 12.6883 117.473 12.3266 117.707 12C117.963 11.6733 118.255 11.335 118.582 10.985C119.398 10.1916 120.25 9.67831 121.137 9.44498C122.047 9.21165 122.852 9.14165 123.552 9.23498V7.90498C122.735 7.88165 121.942 7.97498 121.172 8.18498C120.425 8.37165 119.748 8.65165 119.142 9.02498C118.535 9.39832 118.01 9.84165 117.567 10.355C117.123 10.8683 116.82 11.4166 116.657 12H116.552V8.00998Z" fill="black"/>
<path d="M136.633 26H152.348V24.67H138.173V1.00998H136.633V26Z" fill="black"/>
<path d="M156.375 26V8.00998H155.045V26H156.375ZM156.375 4.61498V1.00998H155.045V4.61498H156.375Z" fill="black"/>
<path d="M162.711 9.16498V26H164.041V9.16498H167.786V8.00998H164.041V4.40498C164.041 3.40165 164.286 2.73665 164.776 2.40998C165.29 2.05998 165.92 1.88498 166.666 1.88498C167.133 1.88498 167.658 1.94332 168.241 2.05998V0.904982C167.658 0.788314 167.133 0.72998 166.666 0.72998C166.13 0.72998 165.616 0.799981 165.126 0.939982C164.66 1.07998 164.24 1.28998 163.866 1.56998C163.516 1.84998 163.236 2.22331 163.026 2.68998C162.816 3.13332 162.711 3.66998 162.711 4.29998V8.00998H159.491V9.16498H162.711Z" fill="black"/>
<path d="M185.786 17.18C185.856 15.8966 185.739 14.6716 185.436 13.505C185.156 12.3383 184.689 11.3233 184.036 10.46C183.383 9.57331 182.543 8.87332 181.516 8.35998C180.489 7.84665 179.276 7.58998 177.876 7.58998C176.523 7.58998 175.344 7.86998 174.341 8.42998C173.338 8.96665 172.498 9.68998 171.821 10.6C171.168 11.51 170.678 12.5483 170.351 13.715C170.048 14.8816 169.908 16.0833 169.931 17.32C169.908 18.5566 170.059 19.735 170.386 20.855C170.736 21.9516 171.238 22.92 171.891 23.76C172.568 24.5767 173.408 25.23 174.411 25.72C175.414 26.1866 176.569 26.42 177.876 26.42C180.023 26.42 181.761 25.8716 183.091 24.775C184.444 23.655 185.296 22.0333 185.646 19.91H184.316C183.989 21.59 183.254 22.9083 182.111 23.865C180.991 24.7983 179.579 25.265 177.876 25.265C176.756 25.265 175.776 25.0433 174.936 24.6C174.119 24.1567 173.431 23.5616 172.871 22.815C172.311 22.0683 171.891 21.205 171.611 20.225C171.354 19.245 171.238 18.23 171.261 17.18H185.786ZM171.261 16.025C171.331 15.1383 171.529 14.2633 171.856 13.4C172.183 12.5133 172.626 11.7316 173.186 11.055C173.746 10.355 174.411 9.79498 175.181 9.37498C175.974 8.95498 176.873 8.74498 177.876 8.74498C178.903 8.74498 179.813 8.95498 180.606 9.37498C181.423 9.77165 182.111 10.3083 182.671 10.985C183.231 11.6383 183.663 12.4083 183.966 13.295C184.269 14.1816 184.433 15.0916 184.456 16.025H171.261Z" fill="black"/>
</svg>
