<svg width="300" height="416" viewBox="0 0 300 416" fill="none" xmlns="http://www.w3.org/2000/svg">
  <rect x="23.5769" y="0.5" width="275.923" height="391.308" fill="white"/>
  <rect x="23.5769" y="0.5" width="275.923" height="391.308" stroke="black"/>
  <rect x="12.0385" y="12.0385" width="275.923" height="391.308" fill="white"/>
  <rect x="12.0385" y="12.0385" width="275.923" height="391.308" stroke="black"/>
  <g clip-path="url(#clip0)">
    <rect x="0.5" y="23.5769" width="275.923" height="391.308" fill="white"/>
    <path fill-rule="evenodd" clip-rule="evenodd" d="M65.7319 227.168H63.6138L-20.8333 257.769V286.847L31.6988 268.015V428.774H65.7319V227.168Z" stroke="black"/>
    <path fill-rule="evenodd" clip-rule="evenodd" d="M235.392 225.847H200.653L112.046 363.687L112.889 383.937H201.778V429.186H235.392V383.937H261.13V356.984H235.392V225.847ZM198.121 276.961L201.778 270.397V356.984H146.645L198.121 276.961Z" stroke="black"/>
    <path fill-rule="evenodd" clip-rule="evenodd" d="M187.505 332.676C189.326 331.034 191.147 329.485 192.97 328.025C194.791 326.567 196.816 325.313 199.049 324.263C201.28 323.216 203.807 322.396 206.632 321.802C209.454 321.209 212.824 320.912 216.741 320.912C222.569 320.912 227.715 321.917 232.179 323.921C236.64 325.928 240.376 328.687 243.382 332.197C246.387 335.708 248.642 339.88 250.144 344.713C251.647 349.547 252.398 354.835 252.398 360.58C252.398 366.598 251.737 372.138 250.418 377.199C249.096 382.26 247.115 386.592 244.475 390.194C241.832 393.797 238.508 396.601 234.502 398.606C230.493 400.613 225.803 401.615 220.43 401.615C211.14 401.615 203.534 399.04 197.615 393.886C191.694 388.736 188.096 381.234 186.822 371.386H155.264C155.81 380.687 157.973 388.849 161.753 395.87C165.531 402.893 170.381 408.751 176.303 413.447C182.222 418.144 188.984 421.701 196.59 424.116C204.194 426.531 212.141 427.741 220.43 427.741C231.449 427.741 241.012 426.007 249.119 422.543C257.225 419.078 263.943 414.36 269.271 408.386C274.599 402.414 278.56 395.391 281.156 387.321C283.752 379.251 285.05 370.612 285.05 361.4C285.05 351.005 283.684 341.682 280.951 333.428C278.219 325.176 274.302 318.155 269.202 312.363C264.1 306.573 257.84 302.128 250.418 299.027C242.993 295.928 234.591 294.376 225.211 294.376C218.289 294.376 212.186 295.244 206.905 296.975C201.622 298.708 197.387 300.486 194.199 302.31L199.254 255.119H278.629V225.847H172.204L161.411 326.247L187.505 332.676Z" stroke="black"/>
    <path fill-rule="evenodd" clip-rule="evenodd" d="M168.003 400.899H74.174L119.642 352.546C125.429 346.446 130.802 340.505 135.763 334.721C140.723 328.939 144.994 323.179 148.576 317.443C152.158 311.706 154.959 305.948 156.981 300.164C159 294.382 160.012 288.396 160.012 282.203C160.012 273.918 158.634 266.313 155.879 259.392C153.123 252.473 149.08 246.484 143.754 241.431C138.426 236.377 131.905 232.439 124.189 229.616C116.473 226.795 107.655 225.381 97.7348 225.381C87.1708 225.381 77.6637 227.044 69.2141 230.367C60.7616 233.692 53.5756 238.221 47.6508 243.958C41.7265 249.694 37.1794 256.411 34.0108 264.105C30.8418 271.8 29.2571 279.972 29.2571 288.622H62.325C62.325 277.241 65.1491 268.318 70.7983 261.851C76.4476 255.386 85.2416 252.153 97.1837 252.153C101.776 252.153 105.933 252.928 109.653 254.475C113.373 256.024 116.542 258.187 119.16 260.963C121.778 263.742 123.797 267.065 125.222 270.934C126.645 274.806 127.358 279.016 127.358 283.569C127.358 287.03 126.897 290.445 125.98 293.812C125.061 297.183 123.5 300.826 121.296 304.74C119.091 308.656 116.129 312.959 112.408 317.647C108.688 322.339 104.073 327.734 98.5614 333.833L33.2527 404.45V426.987H168.003V400.899Z" stroke="black"/>
    <path fill-rule="evenodd" clip-rule="evenodd" d="M119.606 337.223H138.901C144.568 337.223 149.649 337.854 154.147 339.114C158.644 340.376 162.49 342.335 165.684 344.99C168.875 347.647 171.327 351.024 173.037 355.121C174.745 359.219 175.601 364.103 175.601 369.776C175.601 380.132 172.654 388.034 166.763 393.481C160.871 398.931 152.798 401.654 142.544 401.654C137.596 401.654 133.143 400.934 129.186 399.492C125.226 398.053 121.832 396.048 118.999 393.481C116.165 390.915 113.983 387.808 112.455 384.162C110.924 380.514 110.161 376.53 110.161 372.207H77.9134C77.9134 381.304 79.6675 389.294 83.1754 396.183C86.6837 403.072 91.383 408.836 97.2752 413.472C103.166 418.112 109.98 421.6 117.717 423.941C125.452 426.282 133.592 427.453 142.139 427.453C151.402 427.453 160.038 426.17 168.045 423.603C176.05 421.037 182.998 417.301 188.891 412.392C194.781 407.485 199.392 401.43 202.721 394.225C206.048 387.021 207.714 378.826 207.714 369.641C207.714 364.869 207.174 360.186 206.094 355.593C205.015 351.001 203.215 346.701 200.697 342.693C198.178 338.688 194.895 335.062 190.848 331.82C186.8 328.578 181.807 325.923 175.871 323.851C180.817 321.601 185.113 318.832 188.756 315.544C192.399 312.257 195.412 308.722 197.796 304.94C200.179 301.158 201.956 297.241 203.126 293.189C204.294 289.136 204.88 285.175 204.88 281.302C204.88 272.117 203.35 264.036 200.292 257.056C197.234 250.079 192.96 244.248 187.474 239.564C181.987 234.883 175.375 231.348 167.64 228.961C159.903 226.576 151.402 225.381 142.139 225.381C133.052 225.381 124.687 226.755 117.042 229.501C109.396 232.249 102.808 236.031 97.2752 240.847C91.7433 245.666 87.4256 251.362 84.3222 257.934C81.2188 264.509 79.6675 271.668 79.6675 279.411H111.915C111.915 275.089 112.678 271.218 114.209 267.795C115.737 264.374 117.873 261.446 120.618 259.015C123.361 256.584 126.599 254.716 130.333 253.409C134.064 252.105 138.135 251.451 142.544 251.451C152.617 251.451 160.152 254.04 165.144 259.218C170.136 264.397 172.632 271.758 172.632 281.302C172.632 285.806 171.935 289.926 170.541 293.662C169.145 297.399 167.054 300.618 164.267 303.319C161.478 306.021 157.97 308.114 153.742 309.6C149.514 311.086 144.568 311.829 138.901 311.829H119.606V337.223Z" stroke="black"/>
    <path d="M44.8746 88.0173H38.9828V104.617H35.8326V88.0173H29.9803V85.4047H44.8746V88.0173Z" fill="black"/>
    <path d="M58.7407 96.0003H50.8455V102.03H60.0852V104.617H47.6689V85.4047H59.9929V88.0173H50.8455V93.4405H58.7407V96.0003Z" fill="black"/>
    <path d="M76.6666 98.7185C76.5787 99.6422 76.359 100.487 76.0075 101.252C75.656 102.008 75.1903 102.659 74.6104 103.205C74.0304 103.741 73.345 104.159 72.5542 104.458C71.7721 104.749 70.8978 104.894 69.9312 104.894C68.7625 104.894 67.7432 104.67 66.8733 104.221C66.0033 103.763 65.2784 103.148 64.6984 102.374C64.1185 101.599 63.6835 100.693 63.3936 99.6554C63.1036 98.6174 62.9542 97.509 62.9454 96.3302V93.7044C62.9542 92.5344 63.108 91.4304 63.4067 90.3924C63.7055 89.3456 64.1449 88.4351 64.7248 87.661C65.3135 86.8781 66.0429 86.2623 66.9128 85.8137C67.7827 85.3563 68.7933 85.1276 69.9444 85.1276C70.9549 85.1276 71.8556 85.2771 72.6464 85.5762C73.4373 85.8753 74.1139 86.2975 74.6763 86.8429C75.2387 87.3883 75.6868 88.0525 76.0207 88.8354C76.3546 89.6183 76.5699 90.4892 76.6666 91.448H73.5032C73.4505 90.885 73.3406 90.3748 73.1737 89.9174C73.0155 89.4512 72.7958 89.0553 72.5146 88.7298C72.2334 88.3956 71.8776 88.1404 71.447 87.9645C71.0252 87.7886 70.5243 87.7006 69.9444 87.7006C69.2326 87.7006 68.6351 87.8633 68.1518 88.1888C67.6685 88.5143 67.2775 88.9541 66.9787 89.5083C66.68 90.0537 66.4647 90.6871 66.3329 91.4084C66.2098 92.1298 66.1483 92.8863 66.1483 93.678V96.3302C66.1483 97.1571 66.2098 97.9356 66.3329 98.6657C66.4647 99.3871 66.6756 100.02 66.9655 100.566C67.2555 101.111 67.6421 101.542 68.1254 101.859C68.6087 102.176 69.2107 102.334 69.9312 102.334C71.0384 102.334 71.882 102.022 72.4619 101.397C73.0419 100.764 73.3846 99.8709 73.49 98.7185H76.6666Z" fill="black"/>
    <path d="M92.3517 104.617H89.2674V96.0399H82.7429V104.617H79.6718V85.4047H82.7429V93.4405H89.2674V85.4047H92.3517V104.617Z" fill="black"/>
    <path d="M31.707 117.833H43.1216V120.459H38.9696V134.432H43.1216V137.045H31.707V134.432H35.7667V120.459H31.707V117.833Z" fill="black"/>
    <path d="M59.9138 137.045H56.7241L50.4764 123.824L50.4632 137.045H47.2603V117.833H50.4632L56.6845 131.015L56.7109 117.833H59.9138V137.045Z" fill="black"/>
    <path d="M93.5116 120.446H87.6198V137.045H84.4696V120.446H78.6173V117.833H93.5116V120.446Z" fill="black"/>
    <path d="M108.564 137.045H105.48V128.468H98.9552V137.045H95.8841V117.833H98.9552V125.869H105.48V117.833H108.564V137.045Z" fill="black"/>
    <path d="M123.59 128.429H115.695V134.459H124.934V137.045H112.518V117.833H124.842V120.446H115.695V125.869H123.59V128.429Z" fill="black"/>
    <path d="M157.188 137.045H153.998L147.75 123.824L147.737 137.045H144.534V117.833H147.737L153.958 131.015L153.985 117.833H157.188V137.045Z" fill="black"/>
    <path d="M172.227 128.429H164.332V134.459H173.571V137.045H161.155V117.833H173.479V120.446H164.332V125.869H172.227V128.429Z" fill="black"/>
    <path d="M186.66 130.434L188.031 117.833H190.983L188.532 137.045H185.5L183.404 124.272L181.335 137.045H178.317L175.865 117.833H178.817L180.188 130.368L182.152 117.833H184.63L186.66 130.434Z" fill="black"/>
    <path d="M42.5284 160.857H34.6332V166.887H43.8729V169.473H31.4566V150.261H43.7806V152.874H34.6332V158.297H42.5284V160.857Z" fill="black"/>
    <path d="M56.8032 165.013H50.8059L49.4879 169.473H46.219L52.4535 150.261H55.2347L61.3505 169.473H58.0949L56.8032 165.013ZM51.61 162.308H56.0123L53.8375 154.774L51.61 162.308Z" fill="black"/>
    <path d="M73.6745 164.525C73.6745 164.068 73.5779 163.667 73.3846 163.324C73.2 162.972 72.932 162.665 72.5805 162.401C72.2378 162.137 71.8248 161.908 71.3415 161.715C70.867 161.512 70.3486 161.328 69.7862 161.16C69.0305 160.94 68.2836 160.668 67.5455 160.342C66.8162 160.017 66.1615 159.621 65.5816 159.155C65.0104 158.68 64.5447 158.13 64.1844 157.505C63.8329 156.872 63.6572 156.142 63.6572 155.315C63.6572 154.488 63.8329 153.749 64.1844 153.098C64.5447 152.438 65.0236 151.88 65.6211 151.422C66.2186 150.965 66.9128 150.613 67.7037 150.367C68.4945 150.12 69.3205 149.997 70.1816 149.997C71.1043 149.997 71.9654 150.142 72.7651 150.433C73.5735 150.714 74.2765 151.115 74.874 151.634C75.4803 152.144 75.9592 152.759 76.3107 153.481C76.6622 154.193 76.8423 154.985 76.8511 155.856H73.6877C73.6438 155.372 73.5383 154.932 73.3714 154.536C73.2132 154.132 72.9847 153.784 72.686 153.494C72.396 153.204 72.0401 152.979 71.6183 152.821C71.1966 152.663 70.7089 152.584 70.1553 152.584C69.6808 152.584 69.2414 152.645 68.8372 152.768C68.433 152.891 68.0815 153.072 67.7827 153.309C67.4928 153.547 67.2643 153.833 67.0973 154.167C66.9304 154.501 66.8469 154.88 66.8469 155.302C66.8469 155.75 66.9611 156.142 67.1896 156.476C67.4181 156.802 67.7168 157.087 68.0859 157.334C68.455 157.58 68.8767 157.796 69.3512 157.98C69.8345 158.156 70.3354 158.319 70.8539 158.469C71.6535 158.706 72.418 159.001 73.1473 159.353C73.8766 159.696 74.5181 160.114 75.0717 160.606C75.6253 161.09 76.0646 161.653 76.3898 162.295C76.7149 162.937 76.8775 163.672 76.8775 164.499C76.8775 165.352 76.6973 166.104 76.337 166.755C75.9768 167.406 75.4935 167.951 74.8872 168.391C74.2808 168.831 73.5779 169.165 72.7782 169.394C71.9786 169.614 71.1438 169.724 70.2739 169.724C69.6852 169.724 69.1008 169.667 68.5209 169.552C67.9409 169.438 67.3829 169.267 66.8469 169.038C66.3197 168.809 65.8276 168.528 65.3707 168.193C64.9137 167.85 64.5139 167.459 64.1712 167.019C63.8373 166.57 63.5737 166.073 63.3804 165.528C63.187 164.974 63.086 164.367 63.0772 163.707H66.2538C66.2977 164.288 66.4251 164.793 66.636 165.224C66.8469 165.656 67.1281 166.016 67.4796 166.306C67.8311 166.588 68.2397 166.803 68.7054 166.953C69.1799 167.094 69.7027 167.164 70.2739 167.164C70.7484 167.164 71.1922 167.107 71.6052 166.993C72.0182 166.878 72.3784 166.711 72.686 166.491C72.9935 166.262 73.2352 165.985 73.4109 165.66C73.5867 165.326 73.6745 164.947 73.6745 164.525Z" fill="black"/>
    <path d="M93.5116 152.874H87.6198V169.473H84.4696V152.874H78.6173V150.261H93.5116V152.874Z" fill="black"/>
    <path d="M100.563 167.586C100.563 167.278 100.612 166.988 100.708 166.716C100.814 166.443 100.963 166.21 101.156 166.016C101.35 165.814 101.587 165.656 101.868 165.541C102.158 165.427 102.488 165.37 102.857 165.37C103.226 165.37 103.551 165.427 103.832 165.541C104.122 165.656 104.364 165.814 104.557 166.016C104.759 166.21 104.909 166.443 105.005 166.716C105.111 166.988 105.163 167.278 105.163 167.586C105.163 167.894 105.111 168.18 105.005 168.444C104.909 168.699 104.759 168.923 104.557 169.117C104.364 169.311 104.122 169.46 103.832 169.566C103.551 169.68 103.226 169.737 102.857 169.737C102.488 169.737 102.158 169.68 101.868 169.566C101.587 169.46 101.35 169.311 101.156 169.117C100.963 168.923 100.814 168.699 100.708 168.444C100.612 168.18 100.563 167.894 100.563 167.586ZM100.563 156.357C100.563 156.049 100.612 155.759 100.708 155.486C100.814 155.214 100.963 154.981 101.156 154.787C101.35 154.585 101.587 154.426 101.868 154.312C102.158 154.198 102.488 154.141 102.857 154.141C103.226 154.141 103.551 154.198 103.832 154.312C104.122 154.426 104.364 154.585 104.557 154.787C104.759 154.981 104.909 155.214 105.005 155.486C105.111 155.759 105.163 156.049 105.163 156.357C105.163 156.665 105.111 156.951 105.005 157.215C104.909 157.47 104.759 157.694 104.557 157.888C104.364 158.082 104.122 158.235 103.832 158.35C103.551 158.455 103.226 158.508 102.857 158.508C102.488 158.508 102.158 158.455 101.868 158.35C101.587 158.235 101.35 158.082 101.156 157.888C100.963 157.694 100.814 157.47 100.708 157.215C100.612 156.951 100.563 156.665 100.563 156.357Z" fill="black"/>
    <path d="M31.2721 201.902V182.689H37.4011C38.3238 182.698 39.1849 182.804 39.9845 183.006C40.793 183.209 41.4959 183.521 42.0935 183.943C42.6998 184.365 43.1743 184.906 43.517 185.566C43.8597 186.217 44.0266 186.991 44.0178 187.888C44.0091 188.838 43.7454 189.652 43.227 190.329C42.7086 190.998 42.01 191.517 41.1313 191.886C41.6673 192.036 42.1418 192.252 42.5548 192.533C42.9766 192.806 43.3281 193.136 43.6092 193.523C43.8904 193.91 44.1057 194.341 44.2551 194.816C44.4045 195.282 44.4792 195.779 44.4792 196.307C44.4792 197.222 44.3122 198.027 43.9783 198.722C43.6444 199.416 43.1787 199.997 42.5811 200.463C41.9924 200.93 41.2894 201.286 40.4722 201.532C39.6638 201.77 38.7895 201.893 37.8493 201.902H31.2721ZM34.4486 193.193V199.315H37.902C38.4028 199.307 38.8598 199.232 39.2728 199.091C39.6858 198.941 40.0417 198.739 40.3404 198.484C40.6392 198.229 40.872 197.917 41.039 197.547C41.2147 197.178 41.3026 196.764 41.3026 196.307C41.3026 195.823 41.2279 195.392 41.0785 195.014C40.9292 194.627 40.7139 194.301 40.4327 194.037C40.1515 193.773 39.8088 193.571 39.4046 193.43C39.0004 193.281 38.5478 193.202 38.047 193.193H34.4486ZM34.4486 190.778H37.4802C37.9547 190.769 38.3941 190.708 38.7983 190.593C39.2113 190.47 39.5671 190.294 39.8659 190.066C40.1647 189.828 40.4019 189.542 40.5777 189.208C40.7534 188.865 40.8413 188.473 40.8413 188.034C40.8413 187.55 40.7578 187.136 40.5909 186.793C40.4239 186.45 40.1866 186.169 39.8791 185.949C39.5803 185.729 39.2244 185.57 38.8115 185.474C38.3985 185.368 37.9459 185.311 37.4538 185.302H34.4486V190.778Z" fill="black"/>
    <path d="M58.7407 193.285H50.8455V199.315H60.0852V201.902H47.6689V182.689H59.9929V185.302H50.8455V190.725H58.7407V193.285Z" fill="black"/>
    <path d="M67.1764 199.315H76.3239V201.902H64.013V182.689H67.1764V199.315Z" fill="black"/>
    <path d="M89.2278 197.442H83.2306L81.9125 201.902H78.6437L84.8782 182.689H87.6593L93.7752 201.902H90.5195L89.2278 197.442ZM84.0346 194.737H88.437L86.2622 187.202L84.0346 194.737Z" fill="black"/>
    <path d="M102.567 194.407H99.3506V201.902H96.1873V182.689H102.25C103.235 182.698 104.14 182.826 104.966 183.072C105.8 183.31 106.521 183.67 107.127 184.154C107.734 184.629 108.204 185.227 108.538 185.949C108.872 186.67 109.038 187.515 109.038 188.482C109.038 189.133 108.951 189.727 108.775 190.263C108.608 190.791 108.371 191.271 108.063 191.702C107.756 192.133 107.387 192.511 106.956 192.837C106.525 193.162 106.051 193.439 105.532 193.668L109.592 201.743V201.902H106.218L102.567 194.407ZM99.3506 191.847H102.264C102.791 191.847 103.274 191.772 103.713 191.623C104.153 191.473 104.531 191.262 104.847 190.989C105.172 190.708 105.423 190.369 105.598 189.973C105.774 189.569 105.862 189.107 105.862 188.588C105.862 188.051 105.778 187.576 105.611 187.163C105.445 186.749 105.203 186.402 104.887 186.12C104.579 185.839 104.201 185.628 103.753 185.487C103.305 185.337 102.804 185.258 102.25 185.249H99.3506V191.847Z" fill="black"/>
    <path d="M124.829 182.689L124.855 195.555C124.847 196.54 124.688 197.442 124.381 198.26C124.073 199.069 123.643 199.764 123.089 200.345C122.536 200.925 121.863 201.374 121.073 201.69C120.29 202.007 119.412 202.165 118.436 202.165C117.487 202.165 116.626 202.007 115.853 201.69C115.08 201.374 114.416 200.93 113.863 200.358C113.309 199.777 112.878 199.082 112.571 198.273C112.263 197.455 112.105 196.549 112.096 195.555L112.123 182.689H115.233L115.26 195.555C115.269 196.144 115.343 196.685 115.484 197.178C115.624 197.67 115.827 198.097 116.09 198.458C116.354 198.81 116.679 199.087 117.066 199.289C117.461 199.482 117.918 199.579 118.436 199.579C118.964 199.579 119.429 199.482 119.834 199.289C120.238 199.087 120.576 198.81 120.848 198.458C121.121 198.097 121.327 197.67 121.468 197.178C121.609 196.685 121.683 196.144 121.692 195.555L121.718 182.689H124.829Z" fill="black"/>
    <path d="M138.524 196.953C138.524 196.496 138.427 196.096 138.234 195.753C138.049 195.401 137.781 195.093 137.43 194.829C137.087 194.565 136.674 194.336 136.191 194.143C135.716 193.941 135.198 193.756 134.636 193.589C133.88 193.369 133.133 193.096 132.395 192.771C131.665 192.445 131.011 192.049 130.431 191.583C129.86 191.108 129.394 190.558 129.034 189.934C128.682 189.3 128.506 188.57 128.506 187.743C128.506 186.916 128.682 186.177 129.034 185.526C129.394 184.867 129.873 184.308 130.47 183.851C131.068 183.393 131.762 183.041 132.553 182.795C133.344 182.549 134.17 182.426 135.031 182.426C135.954 182.426 136.815 182.571 137.614 182.861C138.423 183.143 139.126 183.543 139.723 184.062C140.33 184.572 140.808 185.188 141.16 185.909C141.511 186.622 141.692 187.413 141.7 188.284H138.537C138.493 187.8 138.388 187.361 138.221 186.965C138.062 186.56 137.834 186.213 137.535 185.922C137.245 185.632 136.889 185.408 136.468 185.249C136.046 185.091 135.558 185.012 135.005 185.012C134.53 185.012 134.091 185.073 133.686 185.197C133.282 185.32 132.931 185.5 132.632 185.738C132.342 185.975 132.114 186.261 131.947 186.595C131.78 186.93 131.696 187.308 131.696 187.73C131.696 188.179 131.81 188.57 132.039 188.904C132.267 189.23 132.566 189.516 132.935 189.762C133.304 190.008 133.726 190.224 134.201 190.409C134.684 190.585 135.185 190.747 135.703 190.897C136.503 191.134 137.267 191.429 137.997 191.781C138.726 192.124 139.367 192.542 139.921 193.034C140.475 193.518 140.914 194.081 141.239 194.723C141.564 195.366 141.727 196.1 141.727 196.927C141.727 197.78 141.547 198.532 141.186 199.183C140.826 199.834 140.343 200.38 139.736 200.82C139.13 201.259 138.427 201.594 137.628 201.822C136.828 202.042 135.993 202.152 135.123 202.152C134.534 202.152 133.95 202.095 133.37 201.981C132.79 201.866 132.232 201.695 131.696 201.466C131.169 201.237 130.677 200.956 130.22 200.622C129.763 200.279 129.363 199.887 129.021 199.447C128.687 198.999 128.423 198.502 128.23 197.956C128.036 197.402 127.935 196.795 127.927 196.135H131.103C131.147 196.716 131.274 197.222 131.485 197.653C131.696 198.084 131.977 198.444 132.329 198.735C132.68 199.016 133.089 199.232 133.555 199.381C134.029 199.522 134.552 199.592 135.123 199.592C135.598 199.592 136.041 199.535 136.454 199.421C136.867 199.307 137.228 199.139 137.535 198.919C137.843 198.691 138.084 198.414 138.26 198.088C138.436 197.754 138.524 197.376 138.524 196.953Z" fill="black"/>
    <path fill-rule="evenodd" clip-rule="evenodd" d="M122.414 53.5729H124.343L125.256 57.715L127.446 53.5729H129.459L128.406 60.2435H126.906L127.651 55.5414L125.061 60.2435H124.566L123.457 55.5414L122.712 60.2435H121.361L122.414 53.5729Z" fill="black"/>
    <path fill-rule="evenodd" clip-rule="evenodd" d="M130.624 53.5729H134.939L134.752 54.7484H131.938L131.696 56.3065H133.96L133.793 57.4075H131.528L131.257 59.068H134.249L134.062 60.2435H129.571L130.624 53.5729Z" fill="black"/>
    <path fill-rule="evenodd" clip-rule="evenodd" d="M135.888 53.5729H138.209C138.942 53.5729 139.51 53.7304 139.914 54.0444C140.318 54.3585 140.517 54.8076 140.51 55.3924C140.51 55.6845 140.467 55.9445 140.38 56.1714C140.293 56.3983 140.175 56.5958 140.025 56.7636C139.877 56.9318 139.7 57.0701 139.494 57.1787C139.289 57.2877 139.069 57.3669 138.833 57.4168L140.231 60.2435H138.674L137.407 57.6689H136.736L136.335 60.2435H134.835L135.888 53.5729ZM137.789 56.6424C138.193 56.6424 138.5 56.5548 138.712 56.3792C138.923 56.2035 139.029 55.9282 139.029 55.5522C139.035 55.2749 138.952 55.0718 138.781 54.9423C138.611 54.8132 138.361 54.7484 138.031 54.7484H137.211L136.904 56.6424H137.789Z" fill="black"/>
    <path fill-rule="evenodd" clip-rule="evenodd" d="M144.05 60.346C143.553 60.346 143.106 60.2761 142.709 60.1363C142.311 59.9961 141.974 59.7976 141.697 59.539C141.421 59.2814 141.21 58.9669 141.064 58.5969C140.918 58.227 140.845 57.8118 140.845 57.3515C140.845 56.8101 140.934 56.3032 141.115 55.8307C141.295 55.3578 141.548 54.9478 141.875 54.5993C142.2 54.2513 142.587 53.9778 143.034 53.7783C143.482 53.5794 143.973 53.4797 144.507 53.4797C144.88 53.4797 145.234 53.5249 145.57 53.6148C145.905 53.7043 146.2 53.8426 146.455 54.0281C146.709 54.214 146.917 54.4521 147.079 54.7433C147.24 55.0349 147.331 55.3849 147.349 55.7935H145.849C145.812 55.4109 145.673 55.1258 145.434 54.9376C145.195 54.7493 144.87 54.6552 144.46 54.6552C144.131 54.6552 143.839 54.727 143.585 54.87C143.33 55.014 143.115 55.2069 142.941 55.4501C142.767 55.6928 142.634 55.9766 142.541 56.3004C142.448 56.6247 142.401 56.9676 142.401 57.3291C142.401 57.8962 142.541 58.3449 142.82 58.6752C143.1 59.0055 143.522 59.1705 144.088 59.1705C144.342 59.1705 144.566 59.1351 144.759 59.0642C144.951 58.993 145.116 58.8956 145.253 58.7726C145.389 58.6486 145.5 58.5019 145.584 58.3318C145.667 58.1622 145.728 57.9749 145.765 57.7713H144.265L144.442 56.6708H147.433C147.346 57.9204 147.022 58.8457 146.459 59.4458C145.897 60.0459 145.094 60.346 144.05 60.346Z" fill="black"/>
    <path fill-rule="evenodd" clip-rule="evenodd" d="M148.723 53.5729H153.038L152.851 54.7484H150.037L149.794 56.3065H152.059L151.892 57.4075H149.627L149.357 59.068H152.348L152.162 60.2435H147.67L148.723 53.5729Z" fill="black"/>
    <path fill-rule="evenodd" clip-rule="evenodd" d="M120.588 60.2435L120.775 59.068H116.282L116.097 60.2435H120.588Z" fill="black"/>
    <path fill-rule="evenodd" clip-rule="evenodd" d="M120.318 57.4075L120.486 56.3065H116.72L116.547 57.4075H120.318Z" fill="black"/>
    <path fill-rule="evenodd" clip-rule="evenodd" d="M121.278 54.7486L121.465 53.5731H117.152L116.966 54.7486H121.278Z" fill="black"/>
    <path fill-rule="evenodd" clip-rule="evenodd" d="M56.1237 58.9982C56.6054 58.9982 56.9959 58.8561 57.2942 58.5709C57.5925 58.2862 57.7419 57.8977 57.7419 57.4061V57.2659C57.7419 56.7743 57.5925 56.3862 57.2942 56.1011C56.9959 55.8164 56.6054 55.6738 56.1237 55.6738C55.6415 55.6738 55.251 55.8201 54.9527 56.1127C54.6539 56.4053 54.505 56.7897 54.505 57.2659V57.4061C54.505 57.8823 54.6539 58.2667 54.9527 58.5593C55.251 58.8519 55.6415 58.9982 56.1237 58.9982ZM54.505 60.2389H52.9598V52.0447H54.505V55.2759C54.505 55.2759 55.1268 54.2691 56.6263 54.2691C56.9861 54.2691 57.3272 54.3352 57.6498 54.468C57.9732 54.6008 58.2548 54.7942 58.4964 55.0476C58.7375 55.3011 58.9292 55.6114 59.0726 55.9781C59.215 56.3452 59.2871 56.7627 59.2871 57.2305V57.4415C59.2871 57.9177 59.2173 58.3389 59.0786 58.7056C58.9399 59.0723 58.7514 59.3826 58.5145 59.6365C58.2772 59.89 57.9975 60.081 57.6745 60.2096C57.3515 60.3386 57.0024 60.4029 56.6263 60.4029C55.2515 60.4029 54.505 59.5014 54.505 59.5014V60.2389Z" fill="black"/>
    <path fill-rule="evenodd" clip-rule="evenodd" d="M35.0131 58.9982C35.4948 58.9982 35.8853 58.8561 36.1836 58.5709C36.482 58.2862 36.6314 57.8977 36.6314 57.4061V57.2659C36.6314 56.7743 36.482 56.3862 36.1836 56.1011C35.8853 55.8164 35.4948 55.6738 35.0131 55.6738C34.5309 55.6738 34.1405 55.8201 33.8421 56.1127C33.5433 56.4053 33.3944 56.7897 33.3944 57.2659V57.4061C33.3944 57.8823 33.5433 58.2667 33.8421 58.5593C34.1405 58.8519 34.5309 58.9982 35.0131 58.9982ZM33.3944 60.2389H31.8492V52.0447H33.3944V55.2759C33.3944 55.2759 34.0167 54.2691 35.5158 54.2691C35.8755 54.2691 36.2167 54.3352 36.5392 54.468C36.8627 54.6008 37.1443 54.7942 37.3858 55.0476C37.6269 55.3011 37.8187 55.6114 37.962 55.9781C38.1044 56.3452 38.1766 56.7627 38.1766 57.2305V57.4415C38.1766 57.9177 38.1067 58.3389 37.9685 58.7056C37.8294 59.0723 37.6409 59.3826 37.404 59.6365C37.1666 59.89 36.8869 60.081 36.5639 60.2096C36.2409 60.3386 35.8918 60.4029 35.5158 60.4029C34.1409 60.4029 33.3944 59.5014 33.3944 59.5014V60.2389Z" fill="black"/>
    <path fill-rule="evenodd" clip-rule="evenodd" d="M43.2607 54.4331H44.8059V60.239H43.2607V59.3961C43.2607 59.3961 42.8214 60.403 41.2985 60.403C40.996 60.403 40.7144 60.3564 40.4529 60.2623C40.1913 60.1691 39.9623 60.0247 39.7659 59.8294C39.57 59.6342 39.4168 59.3905 39.3065 59.0979C39.1962 58.8053 39.1409 58.4596 39.1409 58.0617V54.4331H40.686V57.7575C40.686 58.1712 40.788 58.4932 40.9927 58.7233C41.1966 58.9535 41.5033 59.0686 41.9119 59.0686C42.3778 59.0686 42.7194 58.926 42.9359 58.6413C43.1523 58.3567 43.2607 57.9681 43.2607 57.4765V54.4331Z" fill="black"/>
    <path fill-rule="evenodd" clip-rule="evenodd" d="M46.0503 58.8344H48.1838V53.4497H46.1239V52.0449H49.729V58.8344H51.7154V60.2391H46.0503V58.8344Z" fill="black"/>
    <path fill-rule="evenodd" clip-rule="evenodd" d="M63.28 58.9982C63.7291 58.9982 64.0893 58.8561 64.3593 58.571C64.6288 58.2863 64.7637 57.8977 64.7637 57.4062V57.2659C64.7637 56.7739 64.6288 56.3863 64.3593 56.1011C64.0893 55.8164 63.7291 55.6739 63.28 55.6739C62.8309 55.6739 62.4711 55.8164 62.2007 56.1011C61.9312 56.3863 61.7962 56.7739 61.7962 57.2659V57.4062C61.7962 57.8977 61.9312 58.2863 62.2007 58.571C62.4711 58.8561 62.8309 58.9982 63.28 58.9982ZM62.937 60.403C62.5688 60.403 62.223 60.3368 61.9005 60.204C61.5775 60.0713 61.2936 59.876 61.0483 59.6184C60.803 59.3612 60.609 59.049 60.4656 58.6823C60.3232 58.3157 60.251 57.8977 60.251 57.4295V57.2426C60.251 56.7818 60.3209 56.3686 60.46 56.0014C60.5987 55.6347 60.7867 55.3226 61.0236 55.0649C61.2605 54.8072 61.5365 54.6106 61.8516 54.4741C62.1662 54.3376 62.5032 54.2691 62.863 54.2691C64.1973 54.2691 64.7637 55.1353 64.7637 55.1353V54.4331H66.3089V58.8342H66.9721V60.239H65.1058L64.874 59.3961C64.874 59.3961 64.3714 60.403 62.937 60.403Z" fill="black"/>
    <path fill-rule="evenodd" clip-rule="evenodd" d="M29.5238 55.2857C29.5238 55.8434 29.05 56.2953 28.4659 56.2953C27.8818 56.2953 27.408 55.8434 27.408 55.2857C27.408 54.7279 27.8818 54.276 28.4659 54.276C29.05 54.276 29.5238 54.7279 29.5238 55.2857Z" fill="black"/>
    <path fill-rule="evenodd" clip-rule="evenodd" d="M29.5238 59.3931C29.5238 59.9508 29.05 60.4032 28.4659 60.4032C27.8818 60.4032 27.408 59.9508 27.408 59.3931C27.408 58.8353 27.8818 58.3834 28.4659 58.3834C29.05 58.3834 29.5238 58.8353 29.5238 59.3931Z" fill="black"/>
    <path fill-rule="evenodd" clip-rule="evenodd" d="M77.6191 59.3275C78.0133 59.3275 78.374 59.2333 78.7039 59.0456C79.0335 58.8583 79.3025 58.6076 79.5114 58.2926L80.3152 58.8937C80.0066 59.313 79.6208 59.6457 79.1563 59.8922C78.6914 60.1382 78.1794 60.2612 77.6191 60.2612C77.1578 60.2612 76.7241 60.1717 76.3178 59.9933C75.9114 59.8153 75.5577 59.5725 75.2557 59.2678C74.9536 58.9631 74.7158 58.6053 74.5403 58.1962C74.3658 57.7862 74.2774 57.3473 74.2774 56.8786C74.2774 56.4108 74.3658 55.9714 74.5403 55.5614C74.7158 55.1518 74.9536 54.7954 75.2557 54.4902C75.5577 54.1851 75.9114 53.9432 76.3178 53.7643C76.7241 53.5859 77.1578 53.4964 77.6191 53.4964C78.1794 53.4964 78.6914 53.6194 79.1563 53.8664C79.6208 54.1128 80.0066 54.4455 80.3152 54.8639L79.5114 55.4649C79.3025 55.1504 79.0335 54.9002 78.7039 54.7115C78.374 54.5233 78.0133 54.4301 77.6191 54.4301C77.2998 54.4301 76.9991 54.494 76.7194 54.6235C76.4392 54.7539 76.1944 54.9287 75.985 55.1504C75.776 55.3727 75.6103 55.6313 75.4865 55.9262C75.3641 56.223 75.3022 56.5398 75.3022 56.8786C75.3022 57.2177 75.3641 57.535 75.4865 57.8304C75.6103 58.1263 75.776 58.3858 75.985 58.6076C76.1944 58.8289 76.4392 59.0036 76.7194 59.1332C76.9991 59.2636 77.2998 59.3275 77.6191 59.3275Z" fill="black"/>
    <path fill-rule="evenodd" clip-rule="evenodd" d="M81.6913 60.0865H82.6361V53.6614H81.6913V60.0865Z" fill="black"/>
    <path fill-rule="evenodd" clip-rule="evenodd" d="M90.6622 60.0865H91.6075V53.6614H90.6622V60.0865Z" fill="black"/>
    <path fill-rule="evenodd" clip-rule="evenodd" d="M93.3284 53.6613H97.4627V54.5647H95.8635V60.0864H94.9271V54.5647H93.3284V53.6613Z" fill="black"/>
    <path fill-rule="evenodd" clip-rule="evenodd" d="M98.5842 53.6613H102.719V54.5647H101.119V60.0864H100.183V54.5647H98.5842V53.6613Z" fill="black"/>
    <path fill-rule="evenodd" clip-rule="evenodd" d="M87.1273 59.3073L86.6238 60.4539L83.7033 53.6612H84.7281L87.1273 59.3073ZM86.9482 57.4706L87.4536 58.7179L89.5954 53.6612H88.5697L86.9482 57.4706Z" fill="black"/>
    <path fill-rule="evenodd" clip-rule="evenodd" d="M105.122 54.4403L105.625 53.2936L108.547 60.0863H107.522L105.122 54.4403Z" fill="black"/>
    <path fill-rule="evenodd" clip-rule="evenodd" d="M105.302 56.277L104.796 55.0302L102.654 60.0864H103.679L105.302 56.277Z" fill="black"/>
  </g>

  <rect x="0.5" y="23.5769" width="275.923" height="391.308" stroke="black"/><defs>
  <clipPath xmlns="http://www.w3.org/2000/svg" id="clip0">
    <rect xmlns="http://www.w3.org/2000/svg" x="0.5" y="23.5769" width="275.923" height="391.308" stroke="black"/>
  </clipPath>
</defs>
</svg>
