<svg width="150" height="27" viewBox="0 0 150 27" fill="none" xmlns="http://www.w3.org/2000/svg">
<path d="M4.22532 0.0249023L3.50098 4.6406H21.0664L21.7907 0.0249023H4.22532Z" fill="black"/>
<path d="M2.53538 10.6948L1.81104 15.4904H16.9619L17.6863 10.6948H2.53538Z" fill="black"/>
<path d="M0.724346 22.2036L0 26.9991H18.0483L18.833 22.2036H0.724346Z" fill="black"/>
<path d="M25.7144 0.0249023L21.489 26.9998H26.8009L29.6379 9.07647L34.1047 26.9998H36.2777L46.7204 8.53697L43.9437 26.9998H49.6178L53.8431 0.0249023H46.2979L37.0021 16.3297L32.9578 0.0249023H25.7144Z" fill="black"/>
<path d="M76.4186 0.0249023H58.9739L54.7485 26.9998H72.6761L73.4004 22.2042H61.3884L62.4749 15.4905H71.8914L72.6157 10.695H63.1992L64.165 4.70055L75.6942 4.6406L76.4186 0.0249023Z" fill="black"/>
<path d="M150 0.0249023H132.555L128.27 26.9998H146.257L146.982 22.2042H134.97L136.056 15.4905H145.473L146.197 10.695H136.781L137.746 4.70055L149.276 4.6406L150 0.0249023Z" fill="black"/>
<path d="M98.8129 8.11744C99.7183 -0.874186 86.2575 0.0249767 86.2575 0.0249767H80.3421L76.1167 26.9999H82.0322L83.662 16.7494H86.2575L91.6298 26.9999H97.666L91.8712 15.4906C91.8109 15.4906 98.0885 15.7903 98.8129 8.11744ZM84.2656 12.5533C85.1107 7.15833 85.1107 7.15833 85.4728 4.64068C88.6117 4.64068 93.3199 4.16112 92.9577 8.59699C92.5352 13.1528 88.7928 12.5533 84.2656 12.5533Z" fill="black"/>
<path d="M127.002 12.6137L124.286 12.5538H114.99L114.326 16.7499H120.905C119.577 20.7062 116.137 22.8642 112.575 22.7443C108.048 22.6244 105.815 17.5891 106.599 12.6737C107.324 8.11793 110.704 4.821 114.386 4.821C114.386 4.821 120.06 4.40139 120.543 8.95715H126.217C126.278 8.95715 126.278 8.95715 126.338 8.95715C126.459 -0.93364 113.843 0.0854114 113.843 0.0854114C107.505 0.145356 101.952 4.94089 100.925 11.5347C100.865 11.8944 100.865 12.1941 100.805 12.5538C100.805 12.5538 97.9677 27.0003 112.636 27.0003C119.698 27.0003 125.493 24.3628 126.7 15.551C127.002 14.5919 127.062 13.5728 127.002 12.6137Z" fill="black"/>
</svg>
