<svg width="160" height="51" viewBox="0 0 160 51" fill="none" xmlns="http://www.w3.org/2000/svg">
<path d="M29.5144 35.4578C30.5968 35.4372 31.4572 34.5636 31.4361 33.5067C31.415 32.4497 30.5204 31.6096 29.438 31.6302C28.3555 31.6508 27.4951 32.5243 27.5162 33.5813C27.5373 34.6382 28.4319 35.4784 29.5144 35.4578Z" fill="black"/>
<path d="M29.6253 45.9377C32.541 44.0599 35.469 42.1941 38.3847 40.3163C38.8066 40.0498 39.2284 39.7711 39.6503 39.5046C40.3575 39.0442 39.7123 37.9175 38.9927 38.3779C36.077 40.2557 33.1489 42.1215 30.2332 43.9993C29.8114 44.2658 29.3895 44.5445 28.9677 44.811C28.2481 45.2592 28.9056 46.3981 29.6253 45.9377Z" fill="black"/>
<path d="M40.2582 40.4861C37.3425 42.3639 34.4144 44.2296 31.4987 46.1075C31.0769 46.374 30.655 46.6526 30.2332 46.9192C29.526 47.3795 30.1711 48.5062 30.8908 48.0459C33.8065 46.168 36.7346 44.3023 39.6503 42.4245C40.0721 42.158 40.4939 41.8793 40.9158 41.6128C41.6354 41.1524 40.9778 40.0136 40.2582 40.4861Z" fill="black"/>
<path d="M6.25016 30.6606C5.08388 31.3148 3.9176 31.9569 2.75133 32.6111C1.93245 33.0593 1.64709 34.1255 2.10615 34.9251C2.57763 35.7246 3.65705 36.0154 4.47593 35.555C5.64221 34.9008 6.80848 34.2587 7.97476 33.6045C8.79363 33.1563 9.079 32.0901 8.61993 31.2905C8.14846 30.491 7.06903 30.2123 6.25016 30.6606Z" fill="black"/>
<path d="M42.008 10.7313C40.8417 11.3855 39.6754 12.0276 38.5091 12.6818C37.6903 13.13 37.4049 14.1962 37.864 14.9957C38.3354 15.7953 39.4149 16.0861 40.2337 15.6257C41.4 14.9715 42.5663 14.3294 43.7326 13.6752C44.5514 13.227 44.8368 12.1608 44.3777 11.3612C43.9063 10.5738 42.8268 10.283 42.008 10.7313Z" fill="black"/>
<path d="M14.96 8.91402C15.7788 8.45365 16.0766 7.39964 15.6051 6.60005C14.9351 5.46124 14.2776 4.32243 13.6076 3.18361C13.1485 2.38402 12.0567 2.10538 11.2378 2.55363C10.4189 3.014 10.1211 4.06801 10.5926 4.8676C11.2626 6.00641 11.9202 7.14522 12.5902 8.28404C13.0617 9.08363 14.1411 9.37439 14.96 8.91402Z" fill="black"/>
<path d="M26.1139 1.24494C25.7541 2.51701 25.4067 3.77698 25.0468 5.04905C24.7987 5.93345 25.357 6.89053 26.2628 7.13283C27.1685 7.37513 28.1486 6.82996 28.3968 5.94556C28.7566 4.67349 29.104 3.41352 29.4638 2.14145C29.712 1.25705 29.1536 0.299966 28.2479 0.0576654C27.3422 -0.184635 26.362 0.360541 26.1139 1.24494Z" fill="black"/>
<path d="M7.30486 17.6858C7.55301 16.8014 6.99468 15.8443 6.08896 15.602C4.7862 15.2507 3.49585 14.9114 2.1931 14.5601C1.28737 14.3178 0.3072 14.863 0.0590561 15.7474C-0.189088 16.6318 0.369236 17.5889 1.27496 17.8312C2.57772 18.1825 3.86807 18.5217 5.17082 18.8731C6.07655 19.1154 7.05672 18.5702 7.30486 17.6858Z" fill="black"/>
<path d="M24.3025 10.2103C21.759 10.0286 19.1163 10.5616 16.7465 11.8822C15.1584 12.7666 13.8308 13.9296 12.7762 15.2622C11.2005 17.2733 10.2699 19.6721 10.0714 22.1557C9.8729 24.6393 10.4064 27.2198 11.7588 29.5458C12.5156 30.8543 13.4834 32.0415 14.6124 33.0229C15.7415 34.0163 17.0443 34.8038 18.4711 35.2762C18.9674 35.4337 19.4016 35.567 19.7863 35.7003C20.0716 35.8093 20.3322 35.9183 20.5927 36.0637C20.9773 36.2818 21.3744 36.5604 21.821 37.045C22.2677 37.5175 22.7764 38.1839 23.3347 39.1409C23.496 39.4075 23.6573 39.7103 23.831 40.0253C23.8806 40.1223 23.9427 40.2313 23.9923 40.3282C24.228 40.7401 24.501 41.0915 24.7864 41.3943C25.2826 41.9274 25.8658 42.303 26.4613 42.5089C26.908 42.6664 27.3422 42.727 27.7393 42.727C28.3348 42.727 28.8559 42.6058 29.2529 42.4605C29.4515 42.3878 29.6376 42.3151 29.774 42.2424C29.9229 42.1697 30.0346 42.1091 30.1215 42.0607C30.1587 42.0364 30.1959 42.0243 30.1959 42.0122C30.4937 41.8426 33.3349 40.2676 33.3349 40.2676C33.3349 40.2676 33.5086 40.1707 33.7816 40.0132C34.588 39.565 36.2506 38.6442 36.4739 38.511C36.4739 38.511 36.5112 38.4867 36.5484 38.4746C36.6228 38.4262 36.7469 38.3656 36.8834 38.2687C37.1191 38.1112 37.4293 37.881 37.7395 37.566C37.9752 37.3358 38.1985 37.045 38.3971 36.6937C38.5459 36.4272 38.67 36.1364 38.7569 35.8093C38.8809 35.3247 38.9182 34.7674 38.8189 34.198C38.7196 33.6286 38.4963 33.035 38.1365 32.4292C38.0745 32.3323 38.0248 32.2354 37.9628 32.1385C37.7643 31.8356 37.5906 31.5448 37.4293 31.2783C36.933 30.4302 36.6104 29.7276 36.4119 29.1582C36.263 28.722 36.1886 28.3586 36.1389 28.0315C36.0769 27.5348 36.1017 27.135 36.1762 26.6988C36.2506 26.2627 36.3747 25.7902 36.4863 25.2329C36.7965 23.7912 36.7593 22.3011 36.4615 20.8473C36.1638 19.3935 35.6054 17.976 34.8486 16.6797C33.9429 15.129 32.7518 13.8327 31.3746 12.815C29.3274 11.2885 26.8584 10.392 24.3025 10.2103ZM33.856 21.3561C34.0918 22.507 34.1042 23.6579 33.8808 24.6998C33.794 25.1239 33.6699 25.5842 33.5707 26.1052C33.4962 26.4929 33.4466 26.9169 33.4342 27.3773C33.4218 28.0678 33.521 28.8432 33.7816 29.7033C34.0421 30.5635 34.464 31.4964 35.0967 32.5867C35.2828 32.9017 35.4814 33.2167 35.6923 33.5559C35.7295 33.6165 35.7791 33.6892 35.804 33.7498C35.9528 34.0042 36.0521 34.2344 36.1141 34.4161C36.1638 34.5857 36.1886 34.719 36.1886 34.8401C36.201 35.0461 36.1638 35.1914 36.1141 35.3368C36.0769 35.4459 36.0149 35.5428 35.9404 35.6397C35.8288 35.7851 35.6923 35.9183 35.5558 36.0153C35.4938 36.0637 35.4193 36.1122 35.3697 36.1485C35.3077 36.1849 35.258 36.2091 35.2208 36.2333C35.196 36.2454 35.1712 36.2576 35.1464 36.2697C34.9975 36.3545 34.2158 36.7906 33.459 37.2025C33.0868 37.4085 32.727 37.6144 32.454 37.7598C32.181 37.9052 32.0073 38.0142 32.0073 38.0142C32.0073 38.0142 29.1661 39.6013 28.8683 39.7588C28.8435 39.7709 28.8187 39.783 28.7939 39.8073C28.7443 39.8315 28.6822 39.8678 28.6078 39.9042C28.4713 39.9648 28.2976 40.0374 28.1115 40.0738C27.975 40.1101 27.8261 40.1223 27.702 40.1223C27.6028 40.1223 27.5035 40.1101 27.4043 40.0738C27.2554 40.0253 27.1065 39.9648 26.9204 39.8073C26.7343 39.6619 26.5234 39.4196 26.3 39.0319C26.2628 38.9713 26.2256 38.9108 26.1884 38.8381C26.0023 38.4867 25.8162 38.1596 25.6425 37.8446C25.0841 36.8754 24.5258 36.1122 23.9799 35.4943C23.5704 35.0339 23.1486 34.6463 22.7268 34.3313C22.094 33.8588 21.4736 33.5559 20.8905 33.3257C20.3074 33.1077 19.7863 32.9623 19.3148 32.8048C18.285 32.4656 17.28 31.8719 16.3867 31.0845C15.4934 30.297 14.6993 29.3278 14.0665 28.2495C13.3469 27.0138 12.9127 25.6933 12.7514 24.3606C12.5156 22.3616 12.8878 20.3384 13.7936 18.5454C14.6993 16.7524 16.1385 15.2017 18.0492 14.1477C19.3148 13.445 20.6796 13.021 22.0444 12.8514C24.0916 12.6091 26.176 12.9604 28.0122 13.8327C29.8485 14.705 31.4366 16.0982 32.516 17.9639C33.1612 19.03 33.6203 20.2052 33.856 21.3561Z" fill="black"/>
<path d="M20.9033 18.969C20.7296 19.0659 18.2606 20.3622 21.2011 24.2875C24.2533 28.3581 26.226 29.5212 26.8092 29.1941C26.8216 29.182 26.8836 29.1577 26.896 29.1456C27.4916 28.8185 27.4543 26.5651 25.4196 21.9251C23.4716 17.4546 21.077 18.8721 20.9033 18.969Z" fill="black"/>
<path d="M40.668 43.8044L36.7101 46.0093L32.7522 48.2142C32.5661 48.3233 32.5164 48.5656 32.6529 48.7352C33.2733 49.4742 35.0847 51.0855 38.2113 49.5832C38.2486 49.5711 38.2734 49.5469 38.3106 49.5348C38.3354 49.5226 38.3602 49.5105 38.3974 49.4984C38.4843 49.45 38.5711 49.4015 38.6704 49.353C38.7697 49.3046 38.8565 49.244 38.931 49.1955C38.9558 49.1834 38.9806 49.1592 39.0054 49.1471C39.0426 49.1228 39.0674 49.1107 39.1047 49.0865C42.0203 47.2208 41.5241 44.8826 41.1891 43.9861C41.1022 43.7922 40.8541 43.6953 40.668 43.8044Z" fill="black"/>
<path d="M58.2244 12.221C56.6239 12.221 55.2467 12.7541 55.2467 14.2442C55.2467 15.8071 56.7976 16.4128 59.1177 17.2245C61.1401 17.9514 63.7456 19.0781 63.7456 22.3492C63.7456 25.0387 61.624 26.9408 58.0879 26.9408C55.3087 26.9408 53.733 26.335 52.604 25.9352V22.5915C53.8075 23.5486 55.8795 24.4693 58.1128 24.4693C59.7877 24.4693 60.9416 23.7666 60.9416 22.4461C60.9416 21.0044 59.2914 20.0958 56.7604 19.2477C53.9812 18.3391 52.4551 16.6551 52.4551 14.3412C52.4551 11.5547 54.5023 9.62842 58.1624 9.62842C60.9168 9.62842 62.964 10.3553 62.964 10.3553L62.5421 13.6264C61.1773 12.7056 59.7505 12.221 58.2244 12.221Z" fill="black"/>
<path d="M72.4799 13.0938C77.0333 13.0938 78.9316 16.171 78.9316 20.0841C78.9316 23.973 76.5246 27.1714 72.3062 27.1714C67.9265 27.1714 65.7056 24.1911 65.7056 20.0841C65.7056 16.0498 68.584 13.0938 72.4799 13.0938ZM72.3062 24.918C74.8373 24.918 76.1524 22.8948 76.1524 20.0841C76.1524 17.1765 74.8745 15.3471 72.4055 15.3471C70.0233 15.3471 68.4724 17.3704 68.4724 20.0599C68.46 22.9917 70.0357 24.918 72.3062 24.918Z" fill="black"/>
<path d="M92.1449 26.0184C90.8173 26.5999 89.2912 26.927 87.8892 26.927C84.043 26.927 81.0156 25.0249 81.0156 20.1184C81.0156 15.6964 83.8445 13.2007 88.0753 13.2007C89.3781 13.2007 90.929 13.5157 91.9712 13.9276L91.6238 17.2471C90.7181 16.1446 89.3781 15.5631 87.9016 15.5631C85.2713 15.5631 83.77 17.344 83.77 20.1789C83.77 22.2506 85.0976 24.6736 88.0257 24.6736C90.6312 24.6736 92.058 23.4984 92.058 23.4984L92.1449 26.0184Z" fill="black"/>
<path d="M96.5497 8.42822C97.5299 8.42822 98.3239 9.19147 98.3239 10.1607C98.3239 11.1299 97.5423 11.8689 96.5497 11.8689C95.5695 11.8689 94.8003 11.1178 94.8003 10.1607C94.8003 9.20358 95.5695 8.42822 96.5497 8.42822ZM95.1973 13.4802H97.9517V26.6977H95.1973V13.4802Z" fill="black"/>
<path d="M110.483 26.8193C110.31 26.1409 110.21 25.3049 110.136 24.7719C108.56 26.2862 107.431 27.0374 105.558 27.0374C102.63 27.0374 101.376 25.1111 101.376 23.1485C101.376 20.2166 103.25 18.5084 107.952 18.5084C108.672 18.5084 109.28 18.5326 109.95 18.5326C109.851 17.2848 109.478 15.5766 106.749 15.5766C104.404 15.5766 103.721 16.4125 102.816 17.1636L102.568 14.038C102.568 14.038 104.292 13.2505 106.922 13.2505C111.6 13.2505 112.555 15.1768 112.555 19.3565V21.6825C112.555 25.1959 113.076 26.468 113.076 26.468L110.483 26.8193ZM109.9 20.5437C109.9 20.5437 108.821 20.5195 108.25 20.5195C105.545 20.5195 104.044 21.1495 104.044 22.9425C104.044 24.0692 104.85 24.7961 106.042 24.7961C107.841 24.7961 109.218 23.6452 109.937 22.4458L109.9 20.5437Z" fill="black"/>
<path d="M119.329 22.6392C119.329 24.3717 120.558 24.5898 121.736 24.5898L121.414 26.7584C120.769 26.7826 120.086 26.7826 119.466 26.7826C117.568 26.7826 116.587 25.4863 116.587 23.0027V8.30719L119.317 8.18604V22.6392H119.329Z" fill="black"/>
<path d="M63.4099 33.8574L67.6904 45.185H67.7897L70.3704 33.9059H73.3977L68.6954 50.7336H67.008L63.7822 42.3258C63.4844 41.5141 63.0129 39.927 62.5787 38.5459H62.4794C62.0327 39.9149 61.4992 41.4778 61.2015 42.2774L57.9011 50.7336H56.3006L51.499 33.9059H54.5264L57.4297 45.185H57.5289L61.735 33.8574H63.4099Z" fill="black"/>
<path d="M85.7177 50.1522C84.3902 50.7337 82.5911 50.9639 81.0402 50.9639C76.4868 50.9639 74.3403 48.8195 74.3403 44.1552C74.3403 40.1209 76.3379 37.1406 80.8417 37.1406C85.2711 37.1406 86.3753 40.339 86.3753 42.8831C86.3753 43.7918 86.2513 44.9063 86.2264 45.076H77.1195C77.3925 47.5232 78.6705 48.662 81.1767 48.662C84.3778 48.662 85.7053 47.5595 85.7053 47.5595V50.1522H85.7177ZM77.132 42.8468H83.7078C83.7078 40.8478 82.8269 39.2123 80.5812 39.2123C78.4347 39.2244 77.3801 40.5207 77.132 42.8468Z" fill="black"/>
<path d="M100.049 50.1522C98.7212 50.7337 96.9222 50.9639 95.3713 50.9639C90.8178 50.9639 88.6714 48.8195 88.6714 44.1552C88.6714 40.1209 90.6689 37.1406 95.1728 37.1406C99.6021 37.1406 100.706 40.339 100.706 42.8831C100.706 43.7918 100.582 44.9063 100.557 45.076H91.4506C91.7236 47.5232 93.0015 48.662 95.5078 48.662C98.7088 48.662 100.036 47.5595 100.036 47.5595V50.1522H100.049ZM91.463 42.8468H98.0388C98.0388 40.8478 97.1579 39.2123 94.9122 39.2123C92.7658 39.2244 91.6987 40.5207 91.463 42.8468Z" fill="black"/>
<path d="M116.004 50.7339H112.53L109.106 46.2635C108.436 45.4275 107.828 44.8702 107.48 44.8702H106.91V50.7339H104.155V32.3433L106.91 32.2222V43.1136H107.555C107.853 43.1136 108.361 42.4836 109.081 41.5507L112.232 37.4922H115.433L110.384 43.7435L116.004 50.7339Z" fill="black"/>
<path d="M127.444 50.1522C126.116 50.7337 124.317 50.9639 122.766 50.9639C118.213 50.9639 116.066 48.8195 116.066 44.1552C116.066 40.1209 118.064 37.1406 122.568 37.1406C126.997 37.1406 128.101 40.339 128.101 42.8831C128.101 43.7918 127.977 44.9063 127.952 45.076H118.846C119.119 47.5232 120.397 48.662 122.903 48.662C126.104 48.662 127.431 47.5595 127.431 47.5595V50.1522H127.444ZM118.858 42.8468H125.434C125.434 40.8478 124.553 39.2123 122.307 39.2123C120.161 39.2244 119.106 40.5207 118.858 42.8468Z" fill="black"/>
<path d="M140.844 50.7345C140.844 50.7345 140.869 47.9723 140.869 44.5558C140.869 41.0667 140.323 39.722 138.263 39.722C136.737 39.722 135.261 40.9698 134.33 42.4599V50.7345H131.576V37.517H133.983L134.231 39.9643C135.757 37.6987 137.308 37.2505 139.107 37.2505C142.755 37.2505 143.635 39.4675 143.635 44.4832C143.611 44.4832 143.611 50.7345 143.611 50.7345H140.844Z" fill="black"/>
<path d="M157.382 50.8551C157.184 49.9949 157.084 49.3649 157.035 48.4078C155.906 50.2372 154.132 51.0004 152.308 51.0004C149.181 51.0004 146.402 49.1468 146.402 44.3372C146.402 39.6971 149.702 37.2741 153.251 37.2741C154.404 37.2741 156.079 37.3953 156.799 37.783V32.3433L159.553 32.2222V44.5068C159.553 46.2392 159.727 48.9772 160 50.4916L157.382 50.8551ZM156.799 45.8031V40.424C155.769 39.8425 154.578 39.6729 153.449 39.6729C151.129 39.6729 149.169 41.2842 149.169 44.1676C149.169 47.584 151.092 48.638 152.717 48.638C154.454 48.638 155.807 47.5113 156.799 45.8031Z" fill="black"/>
</svg>
