<svg width="115" height="73" viewBox="0 0 115 73" fill="none" xmlns="http://www.w3.org/2000/svg">
<circle cx="78.5" cy="36.5" r="36.5" fill="black"/>
<path d="M8.01819 29.2039V34.9999H10.7182V22.0759H8.01819V26.9719H2.97819V22.0759H0.278187V34.9999H2.97819V29.2039H8.01819Z" fill="black"/>
<path d="M16.6845 22.0759H13.9845V34.9999H16.6845V22.0759Z" fill="black"/>
<path d="M28.6924 29.0059H18.6844V30.9139H28.6924V29.0059Z" fill="black"/>
<path d="M36.3865 24.3619H40.2925V22.0759H29.7805V24.3619H33.6865V34.9999H36.3865V24.3619Z" fill="black"/>
<path d="M52.2465 22.0759H42.7425V34.9999H52.5525V32.7139H45.3885V29.3659H51.6885V27.0799H45.3885V24.3619H52.2465V22.0759Z" fill="black"/>
<path d="M66.5344 26.3059C66.3904 24.3979 64.8244 21.7339 60.9544 21.7339C57.6244 21.7339 55.0144 24.0379 55.0144 28.5559C55.0144 33.0199 57.4804 35.3419 60.9184 35.3419C64.1584 35.3419 65.9944 33.3799 66.5344 30.5719H63.8344C63.5104 32.1559 62.4664 33.0019 60.9724 33.0019C58.6864 33.0019 57.7684 30.9139 57.7684 28.5919C57.7684 24.9379 59.6764 24.0739 60.9724 24.0739C63.2044 24.0739 63.6184 25.5319 63.8344 26.3059H66.5344Z" fill="black"/>
<path d="M77.0728 29.2039V34.9999H79.7728V22.0759H77.0728V26.9719H72.0328V22.0759H69.3328V34.9999H72.0328V29.2039H77.0728Z" fill="black"/>
<path d="M8.25219 47.0759H8.21619L3.08619 38.0759H0.242188V50.9999H2.76219V41.7839H2.79819L8.07219 50.9999H10.7722V38.0759H8.25219V47.0759Z" fill="black"/>
<path d="M16.9365 48.3359H21.7065L22.5345 50.9999H25.4685L20.9145 38.0759H17.8005L13.1925 50.9999H16.0365L16.9365 48.3359ZM19.3125 40.9919H19.3485L20.9505 46.1039H17.6565L19.3125 40.9919Z" fill="black"/>
<path d="M31.9057 40.3619H35.8117V38.0759H25.2997V40.3619H29.2057V50.9999H31.9057V40.3619Z" fill="black"/>
<path d="M40.7457 38.0759H38.0457V50.9999H40.7457V38.0759Z" fill="black"/>
<path d="M43.5376 44.5379C43.5376 50.6039 48.0376 51.3419 49.7476 51.3419C51.4576 51.3419 55.9576 50.6039 55.9576 44.5379C55.9576 38.4719 51.4576 37.7339 49.7476 37.7339C48.0376 37.7339 43.5376 38.4719 43.5376 44.5379ZM46.2376 44.5379C46.2376 40.9199 48.2896 40.0199 49.7476 40.0199C51.2056 40.0199 53.2576 40.9199 53.2576 44.5379C53.2576 48.1559 51.2056 49.0559 49.7476 49.0559C48.2896 49.0559 46.2376 48.1559 46.2376 44.5379Z" fill="black"/>
<path d="M66.8494 47.0759H66.8134L61.6834 38.0759H58.8394V50.9999H61.3594V41.7839H61.3954L66.6694 50.9999H69.3694V38.0759H66.8494V47.0759Z" fill="black"/>
<mask id="mask0" mask-type="alpha" maskUnits="userSpaceOnUse" x="42" y="0" width="73" height="73">
<circle cx="78.5" cy="36.5" r="36.5" fill="black"/>
</mask>
<g mask="url(#mask0)">
<path d="M8.01819 29.2039V34.9999H10.7182V22.0759H8.01819V26.9719H2.97819V22.0759H0.278187V34.9999H2.97819V29.2039H8.01819Z" fill="white"/>
<path d="M16.6845 22.0759H13.9845V34.9999H16.6845V22.0759Z" fill="white"/>
<path d="M28.6924 29.0059H18.6844V30.9139H28.6924V29.0059Z" fill="white"/>
<path d="M36.3865 24.3619H40.2925V22.0759H29.7805V24.3619H33.6865V34.9999H36.3865V24.3619Z" fill="white"/>
<path d="M52.2465 22.0759H42.7425V34.9999H52.5525V32.7139H45.3885V29.3659H51.6885V27.0799H45.3885V24.3619H52.2465V22.0759Z" fill="white"/>
<path d="M66.5344 26.3059C66.3904 24.3979 64.8244 21.7339 60.9544 21.7339C57.6244 21.7339 55.0144 24.0379 55.0144 28.5559C55.0144 33.0199 57.4804 35.3419 60.9184 35.3419C64.1584 35.3419 65.9944 33.3799 66.5344 30.5719H63.8344C63.5104 32.1559 62.4664 33.0019 60.9724 33.0019C58.6864 33.0019 57.7684 30.9139 57.7684 28.5919C57.7684 24.9379 59.6764 24.0739 60.9724 24.0739C63.2044 24.0739 63.6184 25.5319 63.8344 26.3059H66.5344Z" fill="white"/>
<path d="M77.0728 29.2039V34.9999H79.7728V22.0759H77.0728V26.9719H72.0328V22.0759H69.3328V34.9999H72.0328V29.2039H77.0728Z" fill="white"/>
<path d="M8.25219 47.0759H8.21619L3.08619 38.0759H0.242188V50.9999H2.76219V41.7839H2.79819L8.07219 50.9999H10.7722V38.0759H8.25219V47.0759Z" fill="white"/>
<path d="M16.9365 48.3359H21.7065L22.5345 50.9999H25.4685L20.9145 38.0759H17.8005L13.1925 50.9999H16.0365L16.9365 48.3359ZM19.3125 40.9919H19.3485L20.9505 46.1039H17.6565L19.3125 40.9919Z" fill="white"/>
<path d="M31.9057 40.3619H35.8117V38.0759H25.2997V40.3619H29.2057V50.9999H31.9057V40.3619Z" fill="white"/>
<path d="M40.7457 38.0759H38.0457V50.9999H40.7457V38.0759Z" fill="white"/>
<path d="M43.5376 44.5379C43.5376 50.6039 48.0376 51.3419 49.7476 51.3419C51.4576 51.3419 55.9576 50.6039 55.9576 44.5379C55.9576 38.4719 51.4576 37.7339 49.7476 37.7339C48.0376 37.7339 43.5376 38.4719 43.5376 44.5379ZM46.2376 44.5379C46.2376 40.9199 48.2896 40.0199 49.7476 40.0199C51.2056 40.0199 53.2576 40.9199 53.2576 44.5379C53.2576 48.1559 51.2056 49.0559 49.7476 49.0559C48.2896 49.0559 46.2376 48.1559 46.2376 44.5379Z" fill="white"/>
<path d="M66.8494 47.0759H66.8134L61.6834 38.0759H58.8394V50.9999H61.3594V41.7839H61.3954L66.6694 50.9999H69.3694V38.0759H66.8494V47.0759Z" fill="white"/>
</g>
</svg>
