<svg width="120" height="26" viewBox="0 0 120 26" fill="#000000" xmlns="http://www.w3.org/2000/svg" id="header_logo">
	<path fill-rule="evenodd" clip-rule="evenodd" d="M6.41669 3.10684C6.41669 4.82264 4.98021 6.21367 3.20834 6.21367C1.43625 6.21367 0 4.82264 0 3.10684C0 1.39103 1.43625 0 3.20834 0C4.98021 0 6.41669 1.39103 6.41669 3.10684ZM6.41669 15.7434C6.41669 17.4592 4.98021 18.8505 3.20834 18.8505C1.43625 18.8505 0 17.4592 0 15.7434C0 14.0276 1.43625 12.6366 3.20834 12.6366C4.98021 12.6366 6.41669 14.0276 6.41669 15.7434Z" transform="translate(0 6.86377)"/>
	<path fill-rule="evenodd" clip-rule="evenodd" d="M4.68637 25.2101H3.59826e-07V6.5745e-10H4.68637V9.94084C4.68637 9.94084 6.57336 6.84272 11.1202 6.84272C12.2113 6.84272 13.247 7.0473 14.2255 7.45504C15.2057 7.86396 16.0608 8.45813 16.7921 9.23825C17.5237 10.0186 18.1051 10.9731 18.5398 12.1014C18.9727 13.2301 19.1909 14.5144 19.1909 15.9546V16.6033C19.1909 18.0678 18.9799 19.3641 18.5596 20.4928C18.1374 21.621 17.5666 22.5756 16.8476 23.3559C16.1285 24.1361 15.279 24.7241 14.3005 25.1201C13.3203 25.5167 12.2615 25.7142 11.1202 25.7142C6.95075 25.7142 4.68637 22.9409 4.68637 22.9409V25.2101ZM9.59625 21.3924C11.0576 21.3924 12.2418 20.9552 13.1469 20.0787C14.0519 19.2022 14.5045 18.007 14.5045 16.4951V16.0628C14.5045 14.5499 14.0519 13.3564 13.1469 12.4792C12.2418 11.6036 11.0576 11.1645 9.59625 11.1645C8.13308 11.1645 6.94913 11.6147 6.04393 12.5155C5.13897 13.4153 4.68637 14.5983 4.68637 16.0628V16.4951C4.68637 17.9594 5.13897 19.1416 6.04393 20.0424C6.94913 20.943 8.13308 21.3924 9.59625 21.3924Z" transform="translate(13.4697)"/>
	<path fill-rule="evenodd" clip-rule="evenodd" d="M12.4959 2.7332e-08H17.1823V17.8623H12.4959V15.2695C12.4959 15.2695 11.1627 18.3664 6.54504 18.3664C5.62731 18.3664 4.77225 18.2227 3.97985 17.9342C3.18583 17.6467 2.49185 17.2024 1.89604 16.6023C1.30232 16.002 0.837193 15.2511 0.502734 14.3513C0.168275 13.4507 1.39964e-06 12.388 1.39964e-06 11.1643V2.7332e-08H4.68637V10.2272C4.68637 11.5004 4.99599 12.4912 5.61663 13.1988C6.23542 13.907 7.16568 14.2612 8.40511 14.2612C9.81814 14.2612 10.854 13.8231 11.5104 12.9466C12.1668 12.0703 12.4959 10.8758 12.4959 9.36293V2.7332e-08Z" transform="translate(35.5854 7.34778)"/>
	<path fill-rule="evenodd" clip-rule="evenodd" d="M-3.39993e-08 20.8883H6.47146V4.32157H0.223514V0H11.1578V20.8883H17.182V25.2099H-3.39993e-08V20.8883Z" transform="translate(56.5425 0.000244141)"/>
	<path fill-rule="evenodd" clip-rule="evenodd" d="M4.68637 25.2101H1.63197e-06V6.5745e-10H4.68637V9.94084C4.68637 9.94084 6.57312 6.84272 11.1202 6.84272C12.2113 6.84272 13.247 7.0473 14.2255 7.45504C15.2057 7.86396 16.0605 8.45813 16.7923 9.23825C17.5237 10.0186 18.1051 10.9731 18.5398 12.1014C18.9727 13.2301 19.1909 14.5144 19.1909 15.9546V16.6033C19.1909 18.0678 18.9797 19.3641 18.5593 20.4928C18.1374 21.621 17.5666 22.5756 16.8476 23.3559C16.1285 24.1361 15.279 24.7241 14.3005 25.1201C13.3203 25.5167 12.2615 25.7142 11.1202 25.7142C6.95075 25.7142 4.68637 22.9409 4.68637 22.9409V25.2101ZM9.59626 21.3924C11.0578 21.3924 12.2418 20.9552 13.147 20.0787C14.0519 19.2022 14.5045 18.007 14.5045 16.4951V16.0628C14.5045 14.5499 14.0519 13.3564 13.147 12.4792C12.2418 11.6036 11.0578 11.1645 9.59626 11.1645C8.13309 11.1645 6.94913 11.6147 6.04393 12.5155C5.13897 13.4153 4.68637 14.5983 4.68637 16.0628V16.4951C4.68637 17.9594 5.13897 19.1416 6.04393 20.0424C6.94913 20.943 8.13309 21.3924 9.59626 21.3924Z" transform="translate(77.4993)"/>
	<path fill-rule="evenodd" clip-rule="evenodd" d="M8.14562 18.8713C7.02944 18.8713 5.98127 18.6676 5.00296 18.259C4.02256 17.851 3.16239 17.2509 2.41827 16.4583C1.67415 15.6659 1.08554 14.7064 0.651046 13.578C0.218176 12.4495 1.4733e-06 11.1643 1.4733e-06 9.724V9.14798C1.4733e-06 7.73127 0.210981 6.45902 0.633175 5.33055C1.05351 4.20208 1.62402 3.24141 2.34307 2.44903C3.06212 1.65665 3.89931 1.05046 4.85441 0.630465C5.80789 0.210469 6.83099 -1.94201e-08 7.9221 -1.94201e-08C11.9683 -1.94201e-08 13.687 2.66563 13.687 2.66563V0.504843H18.3734V14.0456H20.3857V18.3671H14.7238L14.0215 15.7743C14.0215 15.7743 12.4968 18.8713 8.14562 18.8713ZM9.18659 14.5497C10.5495 14.5497 11.6408 14.1123 12.4599 13.2358C13.2774 12.3595 13.687 11.1643 13.687 9.65212V9.21987C13.687 7.70699 13.2774 6.51347 12.4599 5.63624C11.6408 4.76066 10.5495 4.32157 9.18659 4.32157C7.82369 4.32157 6.73258 4.76066 5.91326 5.63624C5.0958 6.51347 4.68637 7.70699 4.68637 9.21987V9.65212C4.68637 11.1643 5.0958 12.3595 5.91326 13.2358C6.73258 14.1123 7.82369 14.5497 9.18659 14.5497Z" transform="translate(99.6143 6.8429)"/>
</svg>
