<svg width="104" height="40" viewBox="0 0 104 40" fill="none" xmlns="http://www.w3.org/2000/svg">
<path d="M87.5 12.4C83.1 10.2 80.6 13 79.6 14.6C77 19.5 73.5 25 73.5 25H73.4C73.4 25 69.7 16.9 68.8 15.3C67.2 12.6 64.8 12.4 63 12.8C59.7 13.6 59 16.9 58.9 17.5C56.7 22 50.8 29.6 45 29.6V29.5C47.1 28 51 23.9 51 19C51 14.2 47.7 11.1 43 11.1C34.3 11.1 32.8 21.6 32.8 23.6C28.5 27.9 22.4 30.4 17.1 30.4C13.9 30.4 12.2 28.6 12.2 26.6C12.2 23.1 15.9 22.3 18 23C18.6 23.4 20.6 24.8 23.1 24.8C25.6 24.8 28.5 23 28.5 20.1C28.5 20.1 28.6 6.4 28.6 4.6C28.6 2 26 0 22.8 0C19.7 0 17.3 2 17.3 4.7L17.5 14.5C12.6 13.1 0 14.4 0 25.7C0 35.6 9.5 40 18.1 40C27.2 40 35.2 36 36.7 35.2C37.7 36.4 41.1 39.3 46.6 39.3C55.8 39.3 62.9 31 64.5 28.9H64.6C64.6 28.9 67.7 34.5 68.4 35.7C69.7 37.9 71.7 39.1 73.8 39.1C76 39.1 78.1 38 79.3 36.2C79.3 36.2 87.1 24.6 89.6 19.8C91.3 17 90.4 13.8 87.5 12.4V12.4ZM96.4 23.9C92.2 23.9 88.9 27.2 88.9 31.4C88.9 35.5 92.2 38.8 96.4 38.8C100.6 38.8 103.9 35.5 103.9 31.4C103.9 27.2 100.6 23.9 96.4 23.9Z" fill="#CCCCCC"/>
</svg>
