<?xml version="1.0" standalone="no"?>
<!DOCTYPE svg PUBLIC "-//W3C//DTD SVG 20010904//EN"
 "http://www.w3.org/TR/2001/REC-SVG-20010904/DTD/svg10.dtd">
<svg version="1.0" xmlns="http://www.w3.org/2000/svg"
 width="431.000000pt" height="431.000000pt" viewBox="0 0 431.000000 431.000000"
 preserveAspectRatio="xMidYMid meet">
<metadata>
Created by potrace 1.11, written by Peter Selinger 2001-2013
</metadata>
<g transform="translate(0.000000,431.000000) scale(0.100000,-0.100000)"
fill="#000000" stroke="none">
<path d="M1779 3908 c-4 -15 -1 -3430 3 -3434 3 -3 142 -5 309 -6 l304 0 1
148 c1 82 2 151 3 153 1 2 21 -16 44 -40 105 -106 222 -182 378 -247 224 -93
521 -106 753 -33 185 58 359 177 461 316 17 22 32 42 35 45 11 10 60 90 60 96
0 4 6 15 14 23 36 43 131 313 142 407 3 23 7 53 11 65 12 50 11 474 -2 565
-88 620 -519 1023 -1076 1008 -143 -4 -207 -15 -318 -50 -182 -60 -368 -186
-465 -316 -16 -21 -31 -38 -35 -38 -3 0 -6 300 -6 668 l0 667 -307 3 c-170 1
-308 1 -309 0z m1444 -1542 c171 -40 323 -159 397 -313 53 -110 63 -162 66
-353 3 -184 -3 -234 -45 -337 -52 -130 -167 -253 -292 -310 -100 -47 -157 -57
-304 -57 -77 0 -149 3 -160 6 -11 3 -40 11 -65 18 -76 21 -155 67 -217 127
-56 55 -143 173 -143 194 0 6 -7 23 -15 38 -8 16 -17 43 -20 61 -3 19 -8 37
-11 41 -9 15 -17 107 -18 223 -2 225 45 357 173 488 108 109 217 163 386 191
47 7 205 -2 268 -17z"/>
<path d="M360 2968 c-118 -18 -244 -105 -303 -208 -160 -282 39 -628 362 -632
242 -3 434 192 425 432 -3 75 -6 89 -30 150 -51 131 -196 244 -327 257 -29 2
-56 5 -62 7 -5 1 -35 -1 -65 -6z"/>
<path d="M310 1231 c-85 -27 -131 -55 -183 -108 -55 -57 -75 -88 -102 -158
-22 -57 -29 -170 -14 -236 43 -193 223 -333 419 -325 111 4 155 18 234 74 170
119 227 327 143 525 -38 88 -137 181 -234 217 -78 30 -190 34 -263 11z"/>
</g>
</svg>
