<svg width="120" height="26" viewBox="0 0 120 26" xmlns="http://www.w3.org/2000/svg">
    <path fill-rule="evenodd" clip-rule="evenodd" d="M6.417 9.97c0 1.716-1.437 3.107-3.209 3.107S0 11.687 0 9.971s1.436-3.107 3.208-3.107c1.772 0 3.209 1.39 3.209 3.107zm0 12.637c0 1.716-1.437 3.107-3.209 3.107S0 24.323 0 22.607C0 20.891 1.436 19.5 3.208 19.5c1.772 0 3.209 1.391 3.209 3.107zM18.156 25.21H13.47V0h4.686v9.94s1.887-3.097 6.434-3.097c1.091 0 2.127.204 3.105.612a7.37 7.37 0 0 1 2.567 1.783c.731.78 1.313 1.735 1.747 2.863.433 1.13.652 2.413.652 3.854v.648c0 1.465-.211 2.761-.632 3.89-.422 1.128-.993 2.083-1.712 2.863a6.99 6.99 0 0 1-2.547 1.764c-.98.397-2.039.594-3.18.594-4.17 0-6.434-2.773-6.434-2.773v2.27zm4.91-3.818c1.461 0 2.646-.437 3.55-1.313.906-.877 1.358-2.072 1.358-3.584v-.432c0-1.513-.452-2.707-1.357-3.584-.905-.875-2.09-1.314-3.551-1.314-1.463 0-2.647.45-3.552 1.35-.905.9-1.358 2.083-1.358 3.548v.432c0 1.464.453 2.647 1.358 3.547.905.901 2.089 1.35 3.552 1.35zM48.081 7.348h4.687V25.21H48.08v-2.593s-1.333 3.097-5.95 3.097a7.442 7.442 0 0 1-2.566-.432 5.577 5.577 0 0 1-2.084-1.332c-.593-.6-1.058-1.351-1.393-2.25-.334-.902-.503-1.964-.503-3.188V7.348h4.687v10.227c0 1.273.31 2.264.93 2.972.619.708 1.55 1.062 2.789 1.062 1.413 0 2.448-.438 3.105-1.315.656-.876.985-2.07.985-3.583V7.348zM56.542 20.889h6.472V4.322h-6.248V0H67.7V20.89h6.024v4.321H56.542V20.89zM82.186 25.21h-4.687V0h4.687v9.94s1.886-3.097 6.433-3.097c1.092 0 2.127.204 3.106.612a7.375 7.375 0 0 1 2.567 1.783c.731.78 1.312 1.735 1.747 2.863.433 1.13.651 2.413.651 3.854v.648c0 1.465-.211 2.761-.631 3.89-.422 1.128-.993 2.083-1.712 2.863A6.99 6.99 0 0 1 91.8 25.12c-.98.397-2.04.594-3.18.594-4.17 0-6.434-2.773-6.434-2.773v2.27zm4.91-3.818c1.461 0 2.645-.437 3.55-1.313.905-.877 1.358-2.072 1.358-3.584v-.432c0-1.513-.453-2.707-1.358-3.584-.905-.875-2.089-1.314-3.55-1.314-1.464 0-2.648.45-3.553 1.35-.905.9-1.357 2.083-1.357 3.548v.432c0 1.464.452 2.647 1.357 3.547.905.901 2.09 1.35 3.553 1.35zM107.76 25.714a8.073 8.073 0 0 1-3.143-.612 7.424 7.424 0 0 1-2.584-1.8c-.745-.793-1.333-1.753-1.768-2.881-.433-1.129-.65-2.414-.65-3.854v-.576c0-1.417.21-2.69.632-3.818.42-1.128.991-2.089 1.71-2.881a7.365 7.365 0 0 1 2.512-1.819 7.527 7.527 0 0 1 3.067-.63c4.047 0 5.765 2.666 5.765 2.666V7.348h4.687v13.54H120v4.322h-5.662l-.702-2.593s-1.525 3.097-5.876 3.097zm1.04-4.321c1.364 0 2.455-.438 3.274-1.314.818-.877 1.227-2.072 1.227-3.584v-.432c0-1.513-.41-2.707-1.227-3.584-.819-.875-1.91-1.315-3.273-1.315-1.363 0-2.454.44-3.273 1.315-.818.877-1.227 2.07-1.227 3.584v.432c0 1.512.41 2.707 1.227 3.584.819.876 1.91 1.314 3.273 1.314z"/>
</svg>
