<svg width="113" height="26" viewBox="0 0 113 26" fill="none" xmlns="http://www.w3.org/2000/svg">
<path d="M13.7398 18.841L7.55871 0.622559H0V4.76061H4.24158L11.5646 25.3593H15.4799L23.1112 4.72399H27.0265V0.622559H19.9572L13.7398 18.841Z" fill="#CCCCCC"/>
<path d="M41.201 21.6241C36.3612 21.6241 32.4278 17.6508 32.4278 12.762C32.4278 7.87328 36.3612 3.90002 41.201 3.90002C42.9592 3.90002 44.5906 4.4127 45.9501 5.30989V9.48456H49.3578H49.9741V4.68735V3.4972C47.8352 1.33663 44.7356 0 40.7297 0C33.6966 0 27.9868 5.76764 27.9868 12.8719C27.9868 19.9762 33.6966 25.7438 40.7297 25.7438C44.8625 25.7438 48.5422 23.748 50.8623 20.6719L47.7808 18.2916C46.0226 20.3057 43.4486 21.6241 41.201 21.6241Z" fill="#CCCCCC"/>
<path d="M58.2039 21.1484H53.9985V25.3963H58.2039V21.1484Z" fill="#CCCCCC"/>
<path d="M109.81 21.276L109.629 14.7759V5.08995V0.970215H105.405H101.182V5.08995H105.405V14.9224C105.296 17.1928 103.774 22.0816 99.1878 22.0816C93.9674 22.0816 94.0399 16.3506 94.058 15.8013V5.08995V0.970215H89.8346H86.1187V5.08995H89.8346V15.7463C89.8346 15.7463 89.0733 25.9999 98.6803 25.9999C104.191 25.9999 105.75 21.2943 105.75 21.2943L106.438 25.2675H113V21.2576H109.81V21.276Z" fill="#CCCCCC"/>
<path d="M70.2221 5.74911L69.9139 0.970215H62.4277V4.72376H66.4155V5.74911V6.84771V21.276H62.4277V25.2858H80.971V21.276H70.6752V11.828C71.6359 4.72376 77.527 4.66883 77.527 4.66883V8.36744H81.5692V0.970215H77.527C72.651 0.970215 70.2221 5.74911 70.2221 5.74911Z" fill="#CCCCCC"/>
</svg>
