<svg width="63" height="35" viewBox="0 0 63 35" fill="none" xmlns="http://www.w3.org/2000/svg">
<path d="M19.7293 0.0175781V7.10184H22.5746L17.3314 27.105L12.106 7.10184H15.2377V0.0175781H0V7.10184H2.26373L11.0949 34.9989H22.5746L31.4953 7.10184H33.4906V0.0175781H19.7293Z" fill="#CCCCCC"/>
<path d="M56.0835 17.1617C56.0835 17.1617 62.4631 15.4721 61.9262 8.247C61.6578 -0.790939 51.2518 0.0186911 47.8518 0.0186911H45.9728H43.2259H33.491V7.10296H36.6673V27.9157H33.491V35H51.386C56.6919 35 62.9999 33.1783 62.9999 25.6541C62.9999 18.1298 56.0835 17.1617 56.0835 17.1617ZM45.9728 6.79494H48.0128C48.0397 6.79494 48.0665 6.79494 48.0933 6.79494C49.6144 6.78614 52.8534 6.74214 52.8176 10.5879C52.7908 13.6152 50.026 14.0728 48.827 14.1344H45.9728V7.10296V6.79494ZM45.9728 20.9019H49.9365C50.0439 20.9019 53.5782 20.9371 53.5782 24.5276C53.5782 27.4757 51.0281 27.8629 50.035 27.9069H45.9728V20.9019Z" fill="#CCCCCC"/>
</svg>
