<svg width="120" height="26" viewBox="0 0 120 26" fill="none" xmlns="http://www.w3.org/2000/svg">
<path d="M22.5737 7.33081C24.6856 7.33081 26.7414 7.33081 28.9093 7.33081C28.9093 7.89745 28.9093 8.44638 28.9093 9.11926C29.5074 8.85365 29.9933 8.64116 30.4605 8.42867C32.1799 7.61413 33.9741 7.02979 35.9551 7.02979C39.45 7.02979 41.73 9.01302 41.8048 12.3243C41.8982 16.6449 41.8235 20.9478 41.8235 25.2684C41.8235 25.357 41.7861 25.4278 41.7674 25.5517C39.6742 25.5517 37.5997 25.5517 35.4318 25.5517C35.4318 25.2861 35.4318 25.0382 35.4318 24.7726C35.4318 21.3374 35.4318 17.9198 35.4318 14.4846C35.4318 14.1836 35.4318 13.8648 35.3757 13.5638C35.1141 12.0764 33.9554 11.191 32.3855 11.4566C31.3202 11.6337 30.2923 12.041 29.2831 12.4128C29.0775 12.4837 28.928 12.9441 28.9093 13.2097C28.8906 16.8397 28.8906 20.4697 28.8906 24.0997C28.8906 24.5601 28.8906 25.0205 28.8906 25.534C26.7601 25.534 24.6856 25.534 22.5924 25.534C22.5737 19.4604 22.5737 13.4045 22.5737 7.33081Z" fill="#CCCCCC"/>
<path d="M62.4746 7.33072C64.5678 7.33072 66.6236 7.33072 68.7541 7.33072C68.7541 7.87965 68.7541 8.41087 68.7541 9.10146C69.1653 8.9421 69.4643 8.85356 69.726 8.7119C71.2959 7.96819 72.8844 7.25989 74.6599 7.08282C76.0616 6.94116 77.4072 7.01199 78.6967 7.57862C80.4722 8.37546 81.5748 9.75664 81.6122 11.5628C81.7244 16.149 81.6683 20.7175 81.6683 25.3038C81.6683 25.3569 81.6309 25.4277 81.5935 25.5162C79.519 25.5162 77.4633 25.5162 75.3327 25.5162C75.314 25.2506 75.2953 24.985 75.2953 24.7371C75.2953 21.355 75.2953 17.9729 75.2953 14.5731C75.2953 14.3074 75.2953 14.0418 75.2766 13.7762C75.1832 12.1826 73.9871 11.1555 72.3238 11.4211C71.2398 11.5982 70.1932 12.0055 69.1466 12.3773C68.941 12.4482 68.7915 12.8554 68.7915 13.121C68.7728 16.999 68.7728 20.8415 68.7728 24.7017C68.7728 24.9673 68.7728 25.2329 68.7728 25.5339C66.661 25.5339 64.5865 25.5339 62.4746 25.5339C62.4746 19.4603 62.4746 13.4044 62.4746 7.33072Z" fill="#CCCCCC"/>
<path d="M104.189 18.1498C99.554 18.1498 95.1247 18.1498 90.7141 18.1498C90.3776 19.3185 91.1252 20.7882 92.5269 21.3548C93.5548 21.7621 94.7135 22.1163 95.8162 22.134C97.9841 22.1694 100.133 21.9569 102.395 21.8329C102.395 22.7891 102.413 23.8693 102.376 24.9317C102.376 25.0557 102.17 25.2328 102.04 25.2682C98.1897 25.8525 94.3397 26.2598 90.5085 25.2682C86.509 24.2234 84.285 21.6204 83.9486 17.6717C83.7991 15.9009 83.8739 14.1302 84.5653 12.4303C85.8549 9.22525 88.4714 7.57846 91.9475 7.2066C93.6856 7.01182 95.4985 7.06494 97.2365 7.31285C101.049 7.87949 103.198 10.0398 103.778 13.6875C104.002 15.1218 104.058 16.5738 104.189 18.1498ZM97.6477 14.8208C97.8346 12.0053 96.5264 10.4294 94.0781 10.4825C91.6859 10.5179 90.3216 12.2001 90.5832 14.8208C92.9381 14.8208 95.2742 14.8208 97.6477 14.8208Z" fill="#CCCCCC"/>
<path d="M20.1814 16.0959C20.1627 19.177 19.5646 21.6384 17.4528 23.5685C16.1632 24.7549 14.5746 25.4278 12.8179 25.7465C10.3322 26.1892 7.88396 26.0829 5.52913 25.1799C2.81921 24.1528 1.11851 22.2404 0.408324 19.5489C-0.189727 17.2823 -0.13366 14.9981 0.595214 12.7492C1.39884 10.2348 3.15562 8.57029 5.79078 7.79117C8.65021 6.94121 11.547 6.9235 14.4064 7.73804C17.6957 8.67654 19.4338 10.9254 19.9758 14.0773C20.1253 14.8741 20.144 15.6887 20.1814 16.0959ZM13.9766 17.0167C14.0327 15.6533 13.8458 14.6971 13.7149 13.7586C13.4907 12.0232 12.4254 10.9962 10.8181 10.8368C8.65021 10.6421 7.2859 11.3681 6.74392 13.1565C6.12718 15.1397 6.22063 17.1761 6.53834 19.1947C6.91212 21.6384 8.51938 22.7008 11.0798 22.2935C12.2759 22.0988 13.1543 21.479 13.4159 20.3811C13.7336 19.1593 13.9392 17.8844 13.9766 17.0167Z" fill="#CCCCCC"/>
<path d="M50.738 25.5341C48.6449 25.5341 46.5704 25.5341 44.4585 25.5341C44.4585 17.0345 44.4585 8.53498 44.4585 0C46.533 0 48.6075 0 50.738 0C50.738 8.51727 50.738 16.9991 50.738 25.5341Z" fill="#CCCCCC"/>
<path d="M106.432 7.33069C108.544 7.33069 110.599 7.33069 112.767 7.33069C112.767 7.87962 112.767 8.41084 112.767 9.11914C115.047 7.72025 117.365 6.94112 120 7.17132C120 8.76499 120 10.3764 120 12.0409C118.991 12.0409 117.982 11.97 116.991 12.0586C115.851 12.1471 114.73 12.3596 113.608 12.5544C112.973 12.6606 112.73 13.0148 112.749 13.6877C112.786 17.3531 112.767 21.0362 112.767 24.7017C112.767 24.9673 112.767 25.2329 112.767 25.5339C110.618 25.5339 108.544 25.5339 106.413 25.5339C106.432 19.478 106.432 13.4397 106.432 7.33069Z" fill="#CCCCCC"/>
<path d="M53.4478 7.31348C55.5596 7.31348 57.6154 7.31348 59.746 7.31348C59.746 13.3694 59.746 19.4254 59.746 25.5167C57.6528 25.5167 55.5783 25.5167 53.4478 25.5167C53.4478 19.4785 53.4478 13.4402 53.4478 7.31348Z" fill="#CCCCCC"/>
<path d="M59.7273 4.86954C57.6154 4.86954 55.5596 4.86954 53.4478 4.86954C53.4478 3.22275 53.4478 1.62908 53.4478 0C55.5409 0 57.6154 0 59.7273 0C59.7273 1.59367 59.7273 3.20504 59.7273 4.86954Z" fill="#CCCCCC"/>
</svg>
